<?xml version="1.0" encoding="UTF-8"?>
<svg version="1.1" xmlns="http://www.w3.org/2000/svg" width="348" height="385">
<path d="M0 0 C114.84 0 229.68 0 348 0 C348 127.05 348 254.1 348 385 C233.16 385 118.32 385 0 385 C0 257.95 0 130.9 0 0 Z " fill="#141414" transform="translate(0,0)"/>
<path d="M0 0 C114.84 0 229.68 0 348 0 C348 127.05 348 254.1 348 385 C233.16 385 118.32 385 0 385 C0 257.95 0 130.9 0 0 Z M195.125 7.4375 C186.77266228 11.11127261 179.24050609 11.18628966 170.23779297 11.18530273 C168.03462717 11.187466 165.83198207 11.20557899 163.62890625 11.22460938 C153.1907285 11.26711154 142.75798786 11.0994789 133 7 C130.58655333 6.33256123 130.58655333 6.33256123 128 7 C127.06671875 7.8765625 126.1334375 8.753125 125.171875 9.65625 C120.03960954 14.17488956 113.88475685 16.4210802 107.625 19 C106.36073981 19.53160201 105.09674414 20.06383352 103.83300781 20.59667969 C96.56007169 23.64170365 89.23570544 26.41177675 81.76171875 28.91625977 C70.91810562 32.63488816 60.8434129 38.1597807 51.31640625 44.4921875 C49.36913076 45.75972264 47.44370787 46.82886527 45.375 47.875 C33.977177 55.05140707 27.97364787 64.95276782 25.0234375 77.7890625 C24.65029922 79.34785629 24.65029922 79.34785629 24.2696228 80.93814087 C21.62581128 92.19677209 19.39713087 103.53837894 17.27490234 114.90527344 C16.61589269 118.42362251 15.93932508 121.9383154 15.26171875 125.453125 C14.83228698 127.72636509 14.40386335 129.9997959 13.9765625 132.2734375 C13.77664703 133.30584564 13.57673157 134.33825378 13.37075806 135.40194702 C12.2167683 141.67392664 11.75047267 147.62527255 12 154 C23.53700558 158.38813059 35.16920841 162.46270359 46.875 166.375 C47.5375177 166.59750427 48.2000354 166.82000854 48.88262939 167.04925537 C50.79297883 167.68998157 52.70505724 168.32554557 54.6171875 168.9609375 C55.72690918 169.33009277 56.83663086 169.69924805 57.97998047 170.07958984 C63.13918695 171.65195916 67.59606813 172.10595945 73 172 C75.39853998 167.43135242 77.24697589 162.84168563 79 158 C91.5124399 208.88392225 82.31145988 269.28725074 79.13035583 321.00165558 C79.00150082 323.10055336 78.87402421 325.19953157 78.7467041 327.29852295 C77.12053223 353.9758609 77.12053223 353.9758609 75.3671875 365.96435547 C74.999062 369.00775471 74.93542091 371.93768245 75 375 C79.89510297 377.57466723 84.65695459 377.27476653 90.04174805 377.24291992 C91.05637493 377.24479561 92.07100182 377.2466713 93.11637497 377.24860382 C96.49823192 377.25226896 99.87988014 377.24148993 103.26171875 377.23046875 C105.65625493 377.22961168 108.05079151 377.22953073 110.44532776 377.23017883 C116.86589955 377.22902552 123.28637868 377.21468003 129.70692444 377.19723511 C133.67493852 377.18753072 137.64293866 377.1816785 141.61096191 377.17724609 C184.41265364 377.12925764 227.20569002 376.80080811 270 376 C270.18712046 360.4000482 269.72239764 344.93935295 268.6875 329.375 C268.62097229 328.3350589 268.55444458 327.2951178 268.48590088 326.22366333 C267.68859896 313.76513552 266.74768362 301.34645713 265.375 288.9375 C264.04820749 276.94258989 263.3065303 265.06250649 263 253 C262.95596256 251.35172337 262.91184858 249.70344879 262.86767578 248.05517578 C262.34293073 228.16497232 261.91040314 208.27273644 261.875 188.375 C261.87040771 187.08029785 261.86581543 185.7855957 261.86108398 184.45166016 C261.8735837 176.91883336 262.24204082 169.49499041 263 162 C263.66 162 264.32 162 265 162 C265.13277344 162.92683594 265.26554688 163.85367188 265.40234375 164.80859375 C265.66724609 166.60490234 265.66724609 166.60490234 265.9375 168.4375 C266.11152344 169.63246094 266.28554688 170.82742187 266.46484375 172.05859375 C266.68985213 174.87955676 266.68985213 174.87955676 268 176 C288.24394219 176.60301104 309.55522228 166.20399315 327 157 C328.33250342 156.33167609 329.66573262 155.6647953 331 155 C330.60095475 147.01022729 328.17737284 139.95518953 325.56570435 132.47436523 C324.28541266 128.79964124 323.03976487 125.11329591 321.796875 121.42578125 C321.55131363 120.69763214 321.30575226 119.96948303 321.05274963 119.2192688 C317.19206072 107.68945394 314.0966736 95.96155614 311.42602539 84.10351562 C308.22023106 69.88971889 304.49556306 55.8095376 291.70263672 47.56811523 C286.63850984 44.62982373 281.30318484 42.32692254 275.9375 40 C274.14058716 39.20964355 274.14058716 39.20964355 272.30737305 38.40332031 C266.03638432 35.6685843 259.7525187 33.058108 253.3125 30.75 C236.69482536 24.72631183 220.43265865 15.71628074 205.74414062 5.92456055 C201.85759923 3.86432367 198.82755855 5.80782024 195.125 7.4375 Z " fill="#F6F6F6" transform="translate(0,0)"/>
<path d="M0 0 C1.32 0 2.64 0 4 0 C4 3 4 6 4 9 C4.66 9.66 5.32 10.32 6 11 C5.34 11.66 4.68 12.32 4 13 C4 12.34 4 11.68 4 11 C1.94729537 12.84188612 1.94729537 12.84188612 1 15 C1.66 15.33 2.32 15.66 3 16 C2.34 16 1.68 16 1 16 C1 16.66 1 17.32 1 18 C1.99 18.66 2.98 19.32 4 20 C3.01 20 2.02 20 1 20 C1.66 22.31 2.32 24.62 3 27 C1.68 27.99 0.36 28.98 -1 30 C0.32 31.32 1.64 32.64 3 34 C2.01 34.33 1.02 34.66 0 35 C1.31201173 36.56249809 1.31201173 36.56249809 3 38 C3.99 38 4.98 38 6 38 C6.33 38.99 6.66 39.98 7 41 C7.66 41.66 8.32 42.32 9 43 C8.68404492 44.67004829 8.34820041 46.33637583 8 48 C8.37722015 50.72502965 8.37722015 50.72502965 9 53 C9.66 53 10.32 53 11 53 C11.99 54.98 11.99 54.98 13 57 C14.32 56.67 15.64 56.34 17 56 C17.495 57.98 17.495 57.98 18 60 C18.7425 59.319375 19.485 58.63875 20.25 57.9375 C23 56 23 56 25.25 56.125 C27 57 27 57 28 59 C28.66 59 29.32 59 30 59 C30.66 57.68 31.32 56.36 32 55 C31.67 54.67 31.34 54.34 31 54 C31.495 53.01 31.495 53.01 32 52 C34.31 52.33 36.62 52.66 39 53 C38.67 52.34 38.34 51.68 38 51 C37.01 51 36.02 51 35 51 C34.67 50.34 34.34 49.68 34 49 C35.98 48.67 37.96 48.34 40 48 C40 46.68 40 45.36 40 44 C40.66 44.33 41.32 44.66 42 45 C42.625 47.5625 42.625 47.5625 43 50 C42.34 50 41.68 50 41 50 C43.71604715 52.87420123 43.71604715 52.87420123 47 55 C46.125 60.875 46.125 60.875 45 62 C44.67 62.99 44.34 63.98 44 65 C44.99 64.34 45.98 63.68 47 63 C47.49823909 60.37024099 47.83659479 57.90379171 48.0625 55.25 C48.52851653 50.21148462 49.18860016 45.7802917 51 41 C50.67 40.67 50.34 40.34 50 40 C48.875 38.0625 48.875 38.0625 48 36 C49 34 50 32 51 30 C51.66 30 52.32 30 53 30 C52.65772428 27.02934491 52.65772428 27.02934491 52 24 C51.34 23.67 50.68 23.34 50 23 C50.495 22.505 50.495 22.505 51 22 C49.35 21.34 47.7 20.68 46 20 C46.33 19.34 46.66 18.68 47 18 C47.66 18 48.32 18 49 18 C49 18.66 49 19.32 49 20 C50.32 19.67 51.64 19.34 53 19 C52.505 18.01 52.505 18.01 52 17 C49.47266765 16.34444881 49.47266765 16.34444881 47 16 C47.66 15.34 48.32 14.68 49 14 C49.928125 14.350625 50.85625 14.70125 51.8125 15.0625 C54.9802953 16.32382628 54.9802953 16.32382628 58 15 C57.34034961 21.86036401 55.7637236 28.34443923 54 35 C54.33 34.67 54.66 34.34 55 34 C56.33333333 32.66666667 57.66666667 31.33333333 59 30 C59.12375 30.78375 59.2475 31.5675 59.375 32.375 C59.79117993 35.14057822 59.79117993 35.14057822 62 37 C60.515 37.495 60.515 37.495 59 38 C59.66 38 60.32 38 61 38 C61 38.66 61 39.32 61 40 C60.34 40 59.68 40 59 40 C58.505 40.99 58.505 40.99 58 42 C57.67 42 57.34 42 57 42 C56.79503906 42.69867188 56.59007812 43.39734375 56.37890625 44.1171875 C56.10949219 45.02726562 55.84007812 45.93734375 55.5625 46.875 C55.29566406 47.77992187 55.02882813 48.68484375 54.75390625 49.6171875 C54 52 54 52 53 54 C54.485 54.495 54.485 54.495 56 55 C55.34 55 54.68 55 54 55 C54 55.99 54 56.98 54 58 C54.83359371 57.16640629 55.63933192 56.305074 56.4375 55.4375 C58 54 58 54 60 54 C60.99 51.03 60.99 51.03 62 48 C61.34 47.67 60.68 47.34 60 47 C60.56371414 43.73045798 61.49962266 42.17424117 64 40 C63.34 39.34 62.68 38.68 62 38 C62.99 37.67 63.98 37.34 65 37 C65.495 36.01 65.495 36.01 66 35 C65.34 35 64.68 35 64 35 C63.505 33.02 63.505 33.02 63 31 C65.3125 30.375 65.3125 30.375 68 30 C71 32 71 32 71.6875 33.75 C72.18035083 37.298526 72.39340218 40.66243257 71.375 44.125 C70.86965523 46.65172384 71.69436803 47.84954734 73 50 C73.33 48.68 73.66 47.36 74 46 C74.37448539 53.48970776 73.00929054 59.80611521 71 67 C70.66199038 68.33215554 70.32661403 69.66500481 70 71 C69.34 71 68.68 71 68 71 C68 72.65 68 74.3 68 76 C71.465 68.575 71.465 68.575 75 61 C78 62 78 62 80 64 C80.66 63.01 81.32 62.02 82 61 C81.58990457 67.77364527 80.43457119 73.66759202 78 80 C77.67 80.886875 77.34 81.77375 77 82.6875 C75.77642727 85.51701195 74.40384558 88.25612001 73 91 C72.34 91 71.68 91 71 91 C71 91.66 71 92.32 71 93 C70.34 93 69.68 93 69 93 C68.87625 93.61875 68.7525 94.2375 68.625 94.875 C68 97 68 97 66 99 C64.845 99.226875 63.69 99.45375 62.5 99.6875 C61.345 100.120625 60.19 100.55375 59 101 C57.45913678 104.51400668 57.45913678 104.51400668 57 108 C58.485 108.99 58.485 108.99 60 110 C58.515 110.495 58.515 110.495 57 111 C56.67 110.67 56.34 110.34 56 110 C55.855625 111.27875 55.71125 112.5575 55.5625 113.875 C55.29357254 116.25692894 55.07773654 117.84452691 54 120 C54.99 121.485 54.99 121.485 56 123 C62.00210353 121.83830254 67.2564815 120.21335831 72.8359375 117.70703125 C75 117 75 117 78 118 C77.175 118.433125 76.35 118.86625 75.5 119.3125 C74.675 119.869375 73.85 120.42625 73 121 C73 121.99 73 122.98 73 124 C72.154375 123.773125 71.30875 123.54625 70.4375 123.3125 C65.99422997 122.90856636 63.94604801 124.02697599 60 126 C60.33 126.66 60.66 127.32 61 128 C59.35 128.66 57.7 129.32 56 130 C56.495 130.45375 56.99 130.9075 57.5 131.375 C59 133 59 133 59 135 C56.96040523 135.50838564 54.91820862 136.00633886 52.875 136.5 C51.73804688 136.7784375 50.60109375 137.056875 49.4296875 137.34375 C46.17122613 137.96723691 43.30625533 138.19621693 40 138 C38.11525997 136.11525997 38.30668 132.97253598 37.9375 130.4375 C37.67259766 128.64119141 37.67259766 128.64119141 37.40234375 126.80859375 C37.26957031 125.88175781 37.13679688 124.95492187 37 124 C36.34 124 35.68 124 35 124 C34.10908007 132.8097572 33.84360447 141.52366247 33.875 150.375 C33.87621857 151.05987488 33.87743713 151.74474976 33.87869263 152.45037842 C33.91674374 202.03937288 33.91674374 202.03937288 37.33520508 251.46777344 C38.15746346 259.65724623 38.1939503 267.77866237 38 276 C37.67 276 37.34 276 37 276 C36.77213542 274.01432292 36.54427083 272.02864583 36.31640625 270.04296875 C36.02829265 267.80603607 36.02829265 267.80603607 35 265 C34.50152317 262.52856024 34.04899171 260.05076117 33.59765625 257.5703125 C33.0735627 255.00107747 33.0735627 255.00107747 32.046875 252.69140625 C30.66967731 249.15077489 29.95540263 245.52042985 29.1875 241.8125 C27.66209596 234.68691271 25.85838093 227.69003031 23.85620117 220.68505859 C22.42274107 215.63089018 21.16115729 210.56063453 20 205.4375 C18.71131402 199.75693554 17.20565248 194.19408146 15.5 188.625 C12.41501715 178.49756682 10.3876616 168.17394865 8.37890625 157.7890625 C8.21261719 156.93054688 8.04632813 156.07203125 7.875 155.1875 C7.74867188 154.50042969 7.62234375 153.81335938 7.4921875 153.10546875 C7.01059502 150.86198967 7.01059502 150.86198967 6.00390625 148.234375 C4.65358623 143.88392762 4.28482403 139.52210588 3.87695312 135.00976562 C3.27799402 129.38170846 2.13580415 124.13580415 -2 120 C-1.34 119.34 -0.68 118.68 0 118 C0.495 116.515 0.495 116.515 1 115 C0.01 114.505 0.01 114.505 -1 114 C-1.625 111.9375 -1.625 111.9375 -2 110 C-1.2575 110.45375 -0.515 110.9075 0.25 111.375 C2.84376337 113.00204379 2.84376337 113.00204379 5.1875 113.875 C7.75211826 115.46683202 8.07905258 117.17137577 9 120 C9.495 121.2375 9.495 121.2375 10 122.5 C10.64942688 124.12356719 11.29545961 125.74849767 11.9375 127.375 C14.2047907 133.66333691 14.2047907 133.66333691 18 139 C18 139.99 18 140.98 18 142 C18.38373493 144.59311783 18.79721753 147.16888252 19.25 149.75 C19.44807251 150.87921875 19.44807251 150.87921875 19.65014648 152.03125 C20.80055362 158.34689905 22.35912243 164.47484758 24.08203125 170.66015625 C25.20575463 174.74859664 26.12670011 178.85182553 27 183 C26.39869461 174.67666747 25.34454242 166.66794767 23.03125 158.63671875 C20.1280812 148.39864999 18.74909672 138.48344707 18.25 127.8984375 C17.88460171 122.20050794 16.99093874 116.61852643 16 111 C15.67 111 15.34 111 15 111 C14.01 111 13.02 111 12 111 C11.80664062 110.44570312 11.61328125 109.89140625 11.4140625 109.3203125 C11.15367187 108.59585938 10.89328125 107.87140625 10.625 107.125 C10.36976563 106.40570313 10.11453125 105.68640625 9.8515625 104.9453125 C9.06122217 102.81842006 9.06122217 102.81842006 7 101 C7 100.67 7 100.34 7 100 C5.68662604 98.9739266 4.35335895 97.97272675 3 97 C3.66 96.67 4.32 96.34 5 96 C4.67 95.01 4.34 94.02 4 93 C2.68 93 1.36 93 0 93 C-0.66 92.01 -1.32 91.02 -2 90 C-2.99 90.495 -2.99 90.495 -4 91 C-4.61875 90.835 -5.2375 90.67 -5.875 90.5 C-8.28885269 89.93203466 -9.66839233 90.25055468 -12 91 C-12 90.34 -12 89.68 -12 89 C-11.01 89 -10.02 89 -9 89 C-9.33 88.67 -9.66 88.34 -10 88 C-11.32 88 -12.64 88 -14 88 C-14 87.34 -14 86.68 -14 86 C-15.98 86.495 -15.98 86.495 -18 87 C-17.67 86.34 -17.34 85.68 -17 85 C-16.34 85 -15.68 85 -15 85 C-15 84.34 -15 83.68 -15 83 C-14.34 82.67 -13.68 82.34 -13 82 C-13.33 81.01 -13.66 80.02 -14 79 C-14.61101562 79.70576172 -14.61101562 79.70576172 -15.234375 80.42578125 C-19.77856919 84.47735262 -27.20673512 84.24652191 -33 84 C-34.43088528 81.13822943 -33.59991697 79.06624227 -33 76 C-34.65 75.67 -36.3 75.34 -38 75 C-38.33 74.01 -38.66 73.02 -39 72 C-39.66 72 -40.32 72 -41 72 C-41 71.34 -41 70.68 -41 70 C-39.68 70 -38.36 70 -37 70 C-37.804375 69.71125 -38.60875 69.4225 -39.4375 69.125 C-42 68 -42 68 -43 66 C-43.2981424 69.7763932 -43.2981424 69.7763932 -42 72 C-42.495 72.99 -42.495 72.99 -43 74 C-43.66 74 -44.32 74 -45 74 C-46.33333333 72 -47.66666667 70 -49 68 C-49.66 68 -50.32 68 -51 68 C-51.495 68.99 -51.495 68.99 -52 70 C-52.66 70 -53.32 70 -54 70 C-53 67 -53 67 -50 65 C-50 63.68 -50 62.36 -50 61 C-50 59.68 -50 58.36 -50 57 C-50.99 56.67 -51.98 56.34 -53 56 C-52.67 55.34 -52.34 54.68 -52 54 C-49.9375 53.375 -49.9375 53.375 -48 53 C-48 52.34 -48 51.68 -48 51 C-48.66 50.67 -49.32 50.34 -50 50 C-46.33333333 50 -42.66666667 50 -39 50 C-38.67 51.32 -38.34 52.64 -38 54 C-36.515 53.505 -36.515 53.505 -35 53 C-36.32 51.35 -37.64 49.7 -39 48 C-37.25 43.125 -37.25 43.125 -35 42 C-35 41.34 -35 40.68 -35 40 C-35.66 39.67 -36.32 39.34 -37 39 C-37.495 38.505 -37.495 38.505 -38 38 C-38.66 38.66 -39.32 39.32 -40 40 C-39.67 38.68 -39.34 37.36 -39 36 C-37.35 36 -35.7 36 -34 36 C-34 35.01 -34 34.02 -34 33 C-33.67 32.34 -33.34 31.68 -33 31 C-32.34 31 -31.68 31 -31 31 C-31 30.01 -31 29.02 -31 28 C-30.34 28.33 -29.68 28.66 -29 29 C-29 30.32 -29 31.64 -29 33 C-28.01 33.66 -27.02 34.32 -26 35 C-25.67 35.99 -25.34 36.98 -25 38 C-23.02 37.505 -23.02 37.505 -21 37 C-20.505 38.98 -20.505 38.98 -20 41 C-17.03 41 -14.06 41 -11 41 C-11 40.67 -11 40.34 -11 40 C-12.65 40 -14.3 40 -16 40 C-15.34 39.67 -14.68 39.34 -14 39 C-14.33 38.01 -14.66 37.02 -15 36 C-15.99 36.495 -15.99 36.495 -17 37 C-17.33 36.01 -17.66 35.02 -18 34 C-17.05125 33.2575 -16.1025 32.515 -15.125 31.75 C-12.62121529 29.68012646 -11.33639662 27.98119247 -10 25 C-9.01 24.34 -8.02 23.68 -7 23 C-7.99 23 -8.98 23 -10 23 C-11.02611949 24.65071396 -12.02308143 26.31970006 -13 28 C-15.6289281 30.38246609 -16.38834178 31 -20 31 C-20 29.68 -20 28.36 -20 27 C-19.030625 26.87625 -18.06125 26.7525 -17.0625 26.625 C-16.051875 26.41875 -15.04125 26.2125 -14 26 C-13.67 25.34 -13.34 24.68 -13 24 C-13.66 24 -14.32 24 -15 24 C-15 24.66 -15 25.32 -15 26 C-15.66 26 -16.32 26 -17 26 C-15.75587233 22.55472339 -14.45185936 19.74608248 -12 17 C-11.01 16.67 -10.02 16.34 -9 16 C-10.32 15.34 -11.64 14.68 -13 14 C-12.67 13.01 -12.34 12.02 -12 11 C-12.495 10.505 -12.495 10.505 -13 10 C-13.33 10 -13.66 10 -14 10 C-14.495 9.01 -14.495 9.01 -15 8 C-15.99 8.99 -16.98 9.98 -18 11 C-19.32 9.68 -20.64 8.36 -22 7 C-21.34 7 -20.68 7 -20 7 C-19.67 6.34 -19.34 5.68 -19 5 C-15 5 -15 5 -13 5.6875 C-10.9047586 6.25545319 -10.9047586 6.25545319 -9.1875 4.6875 C-8.465625 4.130625 -7.74375 3.57375 -7 3 C-4.68652128 2.26739841 -2.354248 1.588562 0 1 C0 0.67 0 0.34 0 0 Z " fill="#0E0E0E" transform="translate(228,38)"/>
<path d="M0 0 C2.0625 0.4375 2.0625 0.4375 4 1 C3.98839844 1.89203125 3.97679688 2.7840625 3.96484375 3.703125 C3.95582031 4.87359375 3.94679688 6.0440625 3.9375 7.25 C3.92589844 8.41015625 3.91429688 9.5703125 3.90234375 10.765625 C3.87705102 13.85395637 3.87705102 13.85395637 4.5625 16.1875 C5.31531342 19.30629845 3.97081521 22.03044759 3 25 C4.32 25.66 5.64 26.32 7 27 C6.34 27.99 5.68 28.98 5 30 C4.34 30 3.68 30 3 30 C3 30.99 3 31.98 3 33 C3.66 33.33 4.32 33.66 5 34 C5 34.66 5 35.32 5 36 C4.34 36 3.68 36 3 36 C2.78807779 41.19209404 3.4087311 45.126739 5 50 C4.34 50.66 3.68 51.32 3 52 C3 52.99 3 53.98 3 55 C3.639375 54.814375 4.27875 54.62875 4.9375 54.4375 C5.618125 54.293125 6.29875 54.14875 7 54 C7.495 54.495 7.495 54.495 8 55 C8.33 53.68 8.66 52.36 9 51 C9.66 51 10.32 51 11 51 C10.6596875 49.948125 10.6596875 49.948125 10.3125 48.875 C9.90319868 45.10942789 11.2745536 43.31285709 13 40 C13.0396713 38.33380554 13.04384447 36.66608987 13 35 C13.63474075 33.65117592 14.29848848 32.3153341 15 31 C15 30.01 15 29.02 15 28 C15.66 28 16.32 28 17 28 C16.79375 27.484375 16.5875 26.96875 16.375 26.4375 C15.95194675 23.6876539 16.48704306 21.81907532 17.328125 19.19921875 C18.47716481 15.43811752 19.31499102 11.59577171 20.21875 7.76953125 C20.91687459 5.29467957 21.7589264 3.24142171 23 1 C24.52311004 3.41905713 25.06726757 4.56276079 24.625 7.4375 C24.41875 8.283125 24.2125 9.12875 24 10 C24.020625 10.86625 24.04125 11.7325 24.0625 12.625 C24 15 24 15 22 18 C21.71337567 22.14776273 21.71337567 22.14776273 23 26 C22.01 26.495 22.01 26.495 21 27 C21.05220703 28.03447266 21.05220703 28.03447266 21.10546875 29.08984375 C21.2954582 35.68519186 20.52898251 40.90334573 18 47 C18.66 47.33 19.32 47.66 20 48 C18 54 18 54 16.9375 56.875 C16.1734615 59.42179501 15.80719834 61.45401571 15.5625 64.0625 C15 68 15 68 13.52734375 70.3984375 C11.85457098 73.24771285 11.42548709 75.3048645 11 78.5625 C9.65351865 87.55743687 7.5691259 95.95268778 4.0546875 104.34375 C-0.07740294 113.52513555 -0.07740294 113.52513555 0 123 C0 127 0 127 -0.5625 129.0625 C-1.22077388 131.20004394 -1.22077388 131.20004394 0 134 C0 134.99 0 135.98 0 137 C0.33 137.99 0.66 138.98 1 140 C0.0625 142.6875 0.0625 142.6875 -1 145 C-0.34 145.33 0.32 145.66 1 146 C0.46048934 152.68993219 -0.88706171 158.63460728 -3 165 C-0.59881473 162.59881473 -0.24779139 160.94503958 0.625 157.6875 C1.01558594 156.27017578 1.01558594 156.27017578 1.4140625 154.82421875 C1.97628978 152.11428328 2.06616408 149.75526131 2 147 C2.31478446 145.66216607 2.64587656 144.32796291 3 143 C3 142.01 3 141.02 3 140 C3.66 140 4.32 140 5 140 C4.67 139.01 4.34 138.02 4 137 C4 133.83772601 4.17014788 130.88359512 4.5 127.75 C4.63921875 126.41195312 4.63921875 126.41195312 4.78125 125.046875 C4.8534375 124.37140625 4.925625 123.6959375 5 123 C5.495 123.99 5.495 123.99 6 125 C8.46278801 122.53721199 8.99771255 120.29323018 10 117 C8.515 117.495 8.515 117.495 7 118 C7 117.34 7 116.68 7 116 C8.95927063 114.2856382 10.95880212 112.61594832 13 111 C12.34 111 11.68 111 11 111 C12.25178596 108.49642808 13.99981158 106.93566621 16 105 C15.34 104.67 14.68 104.34 14 104 C14.99 104 15.98 104 17 104 C17.13277344 103.30132812 17.26554687 102.60265625 17.40234375 101.8828125 C17.66724609 100.51769531 17.66724609 100.51769531 17.9375 99.125 C18.11152344 98.22007812 18.28554687 97.31515625 18.46484375 96.3828125 C19 94 19 94 20 92 C20.66 92 21.32 92 22 92 C22.18175781 90.78763672 22.18175781 90.78763672 22.3671875 89.55078125 C22.53476563 88.48214844 22.70234375 87.41351563 22.875 86.3125 C23.03742188 85.25675781 23.19984375 84.20101562 23.3671875 83.11328125 C23.96355196 80.17931536 24.85032494 77.75225242 26 75 C26.5678011 73.06999717 27.10955332 71.13213975 27.625 69.1875 C27.88539062 68.21167969 28.14578125 67.23585938 28.4140625 66.23046875 C28.60742188 65.49441406 28.80078125 64.75835937 29 64 C31.97 64.495 31.97 64.495 35 65 C34.34 65.99 33.68 66.98 33 68 C33 68.99 33 69.98 33 71 C32.01 71.33 31.02 71.66 30 72 C30.95865509 74.33075929 30.95865509 74.33075929 34 76 C33.01 76.33 32.02 76.66 31 77 C30.814375 78.794375 30.814375 78.794375 30.625 80.625 C30.28826574 83.46462475 29.79321939 85.57680906 28.8125 88.3125 C28.544375 89.199375 28.27625 90.08625 28 91 C28.99 92.485 28.99 92.485 30 94 C29.01 94.495 29.01 94.495 28 95 C27.01 94.505 27.01 94.505 26 94 C26.1546875 95.7325 26.1546875 95.7325 26.3125 97.5 C26.35839554 101.21753854 25.53820173 103.06684665 23.375 106.0625 C21.38865576 108.80111478 21.38865576 108.80111478 21.11328125 112.05859375 C21.70704642 114.2142121 21.70704642 114.2142121 23 117 C22.01 117 21.02 117 20 117 C20 117.66 20 118.32 20 119 C18.515 119.99 18.515 119.99 17 121 C17 121.66 17 122.32 17 123 C16.01 123.495 16.01 123.495 15 124 C15 124.66 15 125.32 15 126 C15.66 126.33 16.32 126.66 17 127 C16.34 127 15.68 127 15 127 C15 127.66 15 128.32 15 129 C14.34 129 13.68 129 13 129 C13.33 129.99 13.66 130.98 14 132 C13.62875 132.5775 13.2575 133.155 12.875 133.75 C11.62020959 136.24266075 11.62020959 136.24266075 13.375 139.75 C13.91125 140.8225 14.4475 141.895 15 143 C14.319375 143.7425 13.63875 144.485 12.9375 145.25 C10.72498854 147.7429421 10.72498854 147.7429421 11.25 150.1875 C11.4975 150.785625 11.745 151.38375 12 152 C12 152.66 12 153.32 12 154 C11.34 154 10.68 154 10 154 C10.165 154.86625 10.33 155.7325 10.5 156.625 C10.97689174 159.84401928 11.2212871 162.75445586 11 166 C10.01 166.99 10.01 166.99 9 168 C9 168.78375 9 169.5675 9 170.375 C9 173.26428461 8.36585155 174.50932953 7 177 C6.38348548 179.12355 5.97001806 181.1898856 5.625 183.375 C5 186 5 186 3.375 189.0625 C1.82926058 192.36476149 2.07791953 192.72149166 3 196 C2.33333333 198 1.66666667 200 1 202 C0.03794392 207.44873578 -0.67006905 211.95653625 2 217 C2.165 217.680625 2.33 218.36125 2.5 219.0625 C3.05896274 221.22848064 3.94633458 223.03315788 5 225 C4.34 225.99 3.68 226.98 3 228 C4.65 227.67 6.3 227.34 8 227 C8 227.66 8 228.32 8 229 C8.99 229.33 9.98 229.66 11 230 C9.35 230.33 7.7 230.66 6 231 C8.81509993 233.2773501 8.81509993 233.2773501 12 233 C12.33 233.99 12.66 234.98 13 236 C14.98 236.33 16.96 236.66 19 237 C19 237.66 19 238.32 19 239 C23.29 239.33 27.58 239.66 32 240 C32 240.33 32 240.66 32 241 C26.53736689 241.04952523 21.07486518 241.08577896 15.61206055 241.10986328 C13.75461551 241.11990615 11.89718621 241.13354304 10.03979492 241.15087891 C7.36633409 241.17520261 4.69308274 241.18650033 2.01953125 241.1953125 C0.7786248 241.21079636 0.7786248 241.21079636 -0.48735046 241.22659302 C-4.78659015 241.22742519 -8.07985785 240.99986069 -12 239 C-11.55992239 232.6304557 -11.10459374 226.26269913 -10.59375 219.8984375 C-2.77293358 128.82251682 -2.77293358 128.82251682 -5.39453125 37.609375 C-5.51183594 36.33578125 -5.62914063 35.0621875 -5.75 33.75 C-5.86859375 32.69296875 -5.9871875 31.6359375 -6.109375 30.546875 C-6 28 -6 28 -4.55078125 26.296875 C-4.03902344 25.86890625 -3.52726562 25.4409375 -3 25 C-2.62690101 23.34178227 -2.29299023 21.67422986 -2 20 C-1.34 19.01 -0.68 18.02 0 17 C-0.66 16.67 -1.32 16.34 -2 16 C-1.835 15.071875 -1.67 14.14375 -1.5 13.1875 C-0.92251612 10.04378647 -0.92251612 10.04378647 -1 7 C-0.67 6.01 -0.34 5.02 0 4 C-0.33 3.01 -0.66 2.02 -1 1 C-0.67 0.67 -0.34 0.34 0 0 Z " fill="#232323" transform="translate(87,136)"/>
<path d="M0 0 C4.64400941 1.40383796 8.7906301 3.36771129 13.0625 5.625 C19.196556 8.78309944 25.39808445 11.38194315 31.875 13.75 C40.39207834 16.88749328 48.68205028 20.41496624 56.9375 24.1875 C58.04528809 24.68668945 59.15307617 25.18587891 60.29443359 25.70019531 C72.66434725 31.42697191 78.54851322 38.2337066 83.5 51 C86.15967368 58.80114478 87.84275892 66.80437931 89.63330078 74.84106445 C93.37824893 91.43310099 98.61380318 107.52053117 104.51123047 123.46557617 C106.19524495 128.12646404 107.47810011 131.95897957 107 137 C98.21911595 141.74387653 89.19859768 145.66307019 79.9375 149.375 C78.29599976 150.03604736 78.29599976 150.03604736 76.62133789 150.71044922 C72.08434524 152.50784085 67.8243676 154.16729047 63 155 C61.02 152.525 61.02 152.525 59 150 C62.51927689 146.30475927 66.02678027 143.42091992 71 142 C74.3125 142.375 74.3125 142.375 77 143 C76.67 142.01 76.34 141.02 76 140 C76.33 139.67 76.66 139.34 77 139 C75.96359375 139.38414062 74.9271875 139.76828125 73.859375 140.1640625 C72.48986499 140.65183319 71.12005739 141.13876891 69.75 141.625 C69.06808594 141.88023437 68.38617188 142.13546875 67.68359375 142.3984375 C62.61717377 144.16922507 62.61717377 144.16922507 59.578125 143.3359375 C58 142 58 142 57 139 C57.375 137.1875 57.375 137.1875 58 135 C58.34578768 133.00211562 58.68143549 131.00240549 59 129 C59.66 129 60.32 129 61 129 C61 127.68 61 126.36 61 125 C62.30158936 121.09523191 64.43147263 119.86922862 68 118 C68.7425 117.67 69.485 117.34 70.25 117 C72.35137474 116.05720054 72.35137474 116.05720054 73 113 C73.66 113 74.32 113 75 113 C75.495 111.02 75.495 111.02 76 109 C76.66 109 77.32 109 78 109 C78.28875 108.13375 78.5775 107.2675 78.875 106.375 C79.58544416 104.24366752 80.31247177 102.11772677 81.0625 100 C81.99858709 97.00452131 82.55668966 94.10317237 83 91 C83.66 91 84.32 91 85 91 C86.13568952 80.86946101 86.13568952 80.86946101 84 71 C83.855625 69.865625 83.71125 68.73125 83.5625 67.5625 C83.00303778 64.01923927 82.01602278 61.17161332 80.62109375 57.89453125 C80 56 80 56 80 52 C78.93215371 49.406659 78.002501 48.002501 76 46 C76 45.01 76 44.02 76 43 C75.34 42.67 74.68 42.34 74 42 C72.6296945 40.02514795 71.29327628 38.02613283 70 36 C69.01 36.495 69.01 36.495 68 37 C65.47411298 34.63707344 64.11179163 33.33537489 63 30 C60.36 29.67 57.72 29.34 55 29 C55 28.34 55 27.68 55 27 C54.01 27.33 53.02 27.66 52 28 C49.22265625 27.4765625 49.22265625 27.4765625 46.0625 26.625 C45.02222656 26.34914063 43.98195313 26.07328125 42.91015625 25.7890625 C41.94980469 25.52867188 40.98945313 25.26828125 40 25 C38.66757243 24.66306429 37.33464705 24.32803373 36 24 C36 23.34 36 22.68 36 22 C35.01 22.33 34.02 22.66 33 23 C32.29875 22.566875 31.5975 22.13375 30.875 21.6875 C26.31480004 19.01086089 21.27237135 18 16 18 C14.33333333 17.33333333 12.66666667 16.66666667 11 16 C10.01 16 9.02 16 8 16 C8.226875 15.236875 8.45375 14.47375 8.6875 13.6875 C8.790625 12.800625 8.89375 11.91375 9 11 C7.64594139 9.39588754 7.64594139 9.39588754 6 8 C5.3125 5.8125 5.3125 5.8125 5 4 C3.35 4 1.7 4 0 4 C0 2.68 0 1.36 0 0 Z " fill="#161616" transform="translate(224,18)"/>
<path d="M0 0 C4.29 0.33 8.58 0.66 13 1 C13 5.95 13 10.9 13 16 C17.95 16 22.9 16 28 16 C28 20.95 28 25.9 28 31 C23.05 31 18.1 31 13 31 C13.66 35.95 14.32 40.9 15 46 C19.29 46 23.58 46 28 46 C28 50.95 28 55.9 28 61 C23.05 61 18.1 61 13 61 C13 65.95 13 70.9 13 76 C17.95 76 22.9 76 28 76 C28 80.95 28 85.9 28 91 C23.05 91 18.1 91 13 91 C13 95.95 13 100.9 13 106 C8.05 106 3.1 106 -2 106 C-2 101.05 -2 96.1 -2 91 C-6.95 91 -11.9 91 -17 91 C-17 86.05 -17 81.1 -17 76 C-21.95 76 -26.9 76 -32 76 C-32 74.02 -32 72.04 -32 70 C-27.42677801 68.01031172 -22.82461355 66.12482828 -18.18457031 64.296875 C-7.65701214 60.14678558 2.69747842 55.67843975 13 51 C12.59425529 41.9924674 9.46224769 33.91931263 6.5 25.5 C0.36293766 8.05721605 0.36293766 8.05721605 0 0 Z " fill="#F6F6F6" transform="translate(317,104)"/>
<path d="M0 0 C0.33 0 0.66 0 1 0 C4.45240949 58.32106038 -0.15266383 116.80978276 -4 175 C-4.33 175 -4.66 175 -5 175 C-5.33 172.36 -5.66 169.72 -6 167 C-6.33 167 -6.66 167 -7 167 C-7 162.05 -7 157.1 -7 152 C-11.95 152 -16.9 152 -22 152 C-22 147.05 -22 142.1 -22 137 C-17.05 137 -12.1 137 -7 137 C-7 132.05 -7 127.1 -7 122 C-11.95 122 -16.9 122 -22 122 C-22 117.05 -22 112.1 -22 107 C-17.05 107 -12.1 107 -7 107 C-7 102.05 -7 97.1 -7 92 C-11.95 92 -16.9 92 -22 92 C-22 87.05 -22 82.1 -22 77 C-17.05 77 -12.1 77 -7 77 C-7 72.05 -7 67.1 -7 62 C-11.95 62 -16.9 62 -22 62 C-22 57.05 -22 52.1 -22 47 C-17.05 47 -12.1 47 -7 47 C-7 42.05 -7 37.1 -7 32 C-11.95 32 -16.9 32 -22 32 C-22 27.05 -22 22.1 -22 17 C-17.05 17 -12.1 17 -7 17 C-7 12.05 -7 7.1 -7 2 C-5.02 2 -3.04 2 -1 2 C-0.67 1.34 -0.34 0.68 0 0 Z " fill="#EEEEEE" transform="translate(82,178)"/>
<path d="M0 0 C0.99 0.495 0.99 0.495 2 1 C3.61373812 8.1997547 2.30396417 12.22149876 -1.5625 18.5625 C-6.37855027 23.37855027 -12.21801647 26.98088262 -19 28 C-19 28.66 -19 29.32 -19 30 C-19.86625 30.144375 -20.7325 30.28875 -21.625 30.4375 C-23.65236765 30.77539461 -25.67575966 31.14143807 -27.6875 31.5625 C-42.08016282 33.46341773 -59.16721105 30.889814 -71 22 C-74.75205787 18.52313779 -78.25383134 15.23312951 -79 10 C-78.87890625 7.640625 -78.87890625 7.640625 -78.5625 5.25 C-78.46066406 4.45078125 -78.35882813 3.6515625 -78.25390625 2.828125 C-78.17011719 2.22484375 -78.08632812 1.6215625 -78 1 C-70.72755418 1.75232198 -70.72755418 1.75232198 -67.0625 3 C-58.75744544 5.71185455 -49.59784702 5.24757364 -40.93603516 5.29516602 C-39.48574044 5.30666601 -38.03548739 5.32708682 -36.58544922 5.35668945 C-26.05876422 5.57047169 -16.36737081 4.86827988 -6.80761719 -0.15112305 C-4.25599275 -1.349394 -2.64951871 -0.76696594 0 0 Z " fill="#0D0D0D" transform="translate(206,6)"/>
<path d="M0 0 C1.65 0 3.3 0 5 0 C5.2475 0.61875 5.495 1.2375 5.75 1.875 C6.82396211 4.15001528 6.82396211 4.15001528 9.0625 5 C11 6 11 6 11.75 7.9375 C12 10 12 10 12 13 C13.9375006 15.18777466 13.9375006 15.18777466 16 17 C16.33 16.34 16.66 15.68 17 15 C18.71767682 18.98188718 20.41037341 22.96479403 22 27 C22.33 26.34 22.66 25.68 23 25 C23.66 25 24.32 25 25 25 C25 24.34 25 23.68 25 23 C25.66 23 26.32 23 27 23 C27.66 26.63 28.32 30.26 29 34 C29.33 34 29.66 34 30 34 C30.66 32.35 31.32 30.7 32 29 C35 31 35 31 35.6875 33.125 C35.8421875 34.053125 35.8421875 34.053125 36 35 C34.02 36.65 32.04 38.3 30 40 C30.99 45.445 30.99 45.445 32 51 C32.99 51.33 33.98 51.66 35 52 C34.91621094 52.60328125 34.83242187 53.2065625 34.74609375 53.828125 C34.64425781 54.62734375 34.54242188 55.4265625 34.4375 56.25 C34.28087891 57.43335938 34.28087891 57.43335938 34.12109375 58.640625 C33.88660452 60.93772109 33.88660452 60.93772109 34.47265625 62.859375 C36.0623579 69.31238615 34.44626905 74.45103388 32.0625 80.375 C31.78470703 81.09816406 31.50691406 81.82132812 31.22070312 82.56640625 C29.17254704 87.82745296 29.17254704 87.82745296 28 89 C23.1784417 89.28362108 19.49507119 88.75417412 15 87 C18.75 85 18.75 85 21 85 C20.72965366 82.56282742 20.72965366 82.56282742 20 80 C18.515 79.01 18.515 79.01 17 78 C17 76 17 76 18 73 C19.485 73.99 19.485 73.99 21 75 C20.65772428 72.02934491 20.65772428 72.02934491 20 69 C19.34 68.67 18.68 68.34 18 68 C16.88194747 65.65672411 15.85545768 63.33704116 14.875 60.9375 C14.59785156 60.27427734 14.32070313 59.61105469 14.03515625 58.92773438 C13.35079847 57.28763557 12.6746225 55.64412717 12 54 C14 53 14 53 17 53 C16.67 52.01 16.34 51.02 16 50 C19.465 49.505 19.465 49.505 23 49 C21.70189329 44.10713623 20.06992622 39.63663473 18 35 C17.505 33.80375 17.01 32.6075 16.5 31.375 C15.09468342 28.02829619 15.09468342 28.02829619 13.3125 25.1875 C12 23 12 23 12 21 C11.34 20.67 10.68 20.34 10 20 C8.9890838 18.4922907 8.03935817 16.94314796 7.125 15.375 C6.5990625 14.47394531 6.073125 13.57289062 5.53125 12.64453125 C5.0259375 11.77183594 4.520625 10.89914063 4 10 C3.5771875 9.30261719 3.154375 8.60523437 2.71875 7.88671875 C0 3.35223214 0 3.35223214 0 0 Z " fill="#0E0E0E" transform="translate(45,83)"/>
<path d="M0 0 C4.64400941 1.40383796 8.7906301 3.36771129 13.0625 5.625 C19.196556 8.78309944 25.39808445 11.38194315 31.875 13.75 C40.39207834 16.88749328 48.68205028 20.41496624 56.9375 24.1875 C58.04528809 24.68668945 59.15307617 25.18587891 60.29443359 25.70019531 C72.77563664 31.47849446 78.62059354 38.35471283 83.5625 51.25 C91 73.07954545 91 73.07954545 91 83 C90.01 83.66 89.02 84.32 88 85 C87.34 85.99 86.68 86.98 86 88 C86.02320313 87.35933594 86.04640625 86.71867187 86.0703125 86.05859375 C86.18418663 80.60076955 85.68137604 76.24193706 84 71 C83.855625 69.865625 83.71125 68.73125 83.5625 67.5625 C83.00303778 64.01923927 82.01602278 61.17161332 80.62109375 57.89453125 C80 56 80 56 80 52 C78.93215371 49.406659 78.002501 48.002501 76 46 C76 45.01 76 44.02 76 43 C75.34 42.67 74.68 42.34 74 42 C72.6296945 40.02514795 71.29327628 38.02613283 70 36 C69.01 36.495 69.01 36.495 68 37 C65.47411298 34.63707344 64.11179163 33.33537489 63 30 C60.36 29.67 57.72 29.34 55 29 C55 28.34 55 27.68 55 27 C54.01 27.33 53.02 27.66 52 28 C49.22265625 27.4765625 49.22265625 27.4765625 46.0625 26.625 C45.02222656 26.34914063 43.98195313 26.07328125 42.91015625 25.7890625 C41.94980469 25.52867188 40.98945313 25.26828125 40 25 C38.66757243 24.66306429 37.33464705 24.32803373 36 24 C36 23.34 36 22.68 36 22 C35.01 22.33 34.02 22.66 33 23 C32.29875 22.566875 31.5975 22.13375 30.875 21.6875 C26.31480004 19.01086089 21.27237135 18 16 18 C14.33333333 17.33333333 12.66666667 16.66666667 11 16 C10.01 16 9.02 16 8 16 C8.226875 15.236875 8.45375 14.47375 8.6875 13.6875 C8.790625 12.800625 8.89375 11.91375 9 11 C7.64594139 9.39588754 7.64594139 9.39588754 6 8 C5.3125 5.8125 5.3125 5.8125 5 4 C3.35 4 1.7 4 0 4 C0 2.68 0 1.36 0 0 Z " fill="#212121" transform="translate(224,18)"/>
<path d="M0 0 C4.95 0 9.9 0 15 0 C15.125 7.625 15.125 7.625 14 11 C11.9609375 12.46484375 11.9609375 12.46484375 9.375 13.9375 C8.4675 14.46472656 7.56 14.99195313 6.625 15.53515625 C5.11608242 16.37718615 3.59926197 17.20602459 2.0625 17.99609375 C-6.27796912 22.34008808 -13.78864479 30.23857883 -16.74609375 39.28125 C-17.22880419 41.17214332 -17.62385089 43.08505907 -18 45 C-21.96 45 -25.92 45 -30 45 C-30 40.05 -30 35.1 -30 30 C-25.05 30 -20.1 30 -15 30 C-15 25.05 -15 20.1 -15 15 C-10.05 15 -5.1 15 0 15 C0 10.05 0 5.1 0 0 Z " fill="#ECECEC" transform="translate(45,30)"/>
<path d="M0 0 C1 3 1 3 0.625 6.125 C1.1838569 11.89985468 3.89232022 15.03695683 8 19 C18.38904674 27.04083754 35.03873696 30.49634094 48 29 C50.40970803 28.53277417 52.76228548 28.00435721 55.125 27.33984375 C57 27 57 27 60 28 C60 27.34 60 26.68 60 26 C60.80824219 25.62488281 61.61648437 25.24976562 62.44921875 24.86328125 C70.56119027 21.0294519 70.56119027 21.0294519 77 15 C77.86625 14.01 77.86625 14.01 78.75 13 C81.29695677 8.92486917 81.10903398 4.68846123 81 0 C83.64 1.32 86.28 2.64 89 4 C88.67 4.99 88.34 5.98 88 7 C86.68 7 85.36 7 84 7 C84.00902344 7.556875 84.01804687 8.11375 84.02734375 8.6875 C83.79148731 14.75823959 82.1298544 17.93328604 77.91015625 22.265625 C75.35456247 24.58604144 73.06857907 26.39597003 70 28 C68.515 27.505 68.515 27.505 67 27 C64.44934058 27.75347275 64.44934058 27.75347275 61.8125 28.9375 C60.91144531 29.31777344 60.01039063 29.69804688 59.08203125 30.08984375 C58.39496094 30.39019531 57.70789063 30.69054687 57 31 C57.99 31.99 57.99 31.99 59 33 C48.62642369 35.48063781 48.62642369 35.48063781 43 34 C43 33.67 43 33.34 43 33 C41.37585622 32.80522261 39.75063577 32.61940542 38.125 32.4375 C37.22007812 32.33308594 36.31515625 32.22867188 35.3828125 32.12109375 C32.98346943 31.80325148 32.98346943 31.80325148 31 33 C30.67 32.34 30.34 31.68 30 31 C29.01 31 28.02 31 27 31 C27.99 31.66 28.98 32.32 30 33 C21.86009895 32.47484509 14.84331868 30.56221246 8 26 C8 25.34 8 24.68 8 24 C7.41347656 23.91234375 6.82695312 23.8246875 6.22265625 23.734375 C3.40199987 22.80241823 2.33798932 21.51187991 0.4375 19.25 C-0.16707031 18.53328125 -0.77164063 17.8165625 -1.39453125 17.078125 C-3 15 -3 15 -4.75 12 C-5.1625 11.34 -5.575 10.68 -6 10 C-6.99 10 -7.98 10 -9 10 C-9.33 10.66 -9.66 11.32 -10 12 C-10.99 10.68 -11.98 9.36 -13 8 C-12.31292969 7.67386719 -11.62585938 7.34773437 -10.91796875 7.01171875 C-10.01691406 6.57472656 -9.11585937 6.13773438 -8.1875 5.6875 C-7.29417969 5.25824219 -6.40085937 4.82898438 -5.48046875 4.38671875 C-3.21068067 3.11778211 -1.70751829 1.93443102 0 0 Z " fill="#212121" transform="translate(127,8)"/>
<path d="M0 0 C0.33 0.99 0.66 1.98 1 3 C2.093125 2.95875 3.18625 2.9175 4.3125 2.875 C8 3 8 3 11 5 C11.66 4.67 12.32 4.34 13 4 C13.66 4.66 14.32 5.32 15 6 C16.82417455 6.92897165 16.82417455 6.92897165 18.875 7.6875 C19.89207031 8.09548828 19.89207031 8.09548828 20.9296875 8.51171875 C23.0134514 9.17166416 23.0134514 9.17166416 25.1328125 8.45703125 C25.74898437 8.30621094 26.36515625 8.15539062 27 8 C27.66 8.66 28.32 9.32 29 10 C31.31765729 10.71927295 33.65095874 11.3909893 36 12 C36.33 11.34 36.66 10.68 37 10 C38.32 10.33 39.64 10.66 41 11 C41.495 13.475 41.495 13.475 42 16 C41.01 15.67 40.02 15.34 39 15 C39.20625 15.94875 39.4125 16.8975 39.625 17.875 C39.74875 18.90625 39.8725 19.9375 40 21 C39.34 21.66 38.68 22.32 38 23 C40.60316291 24.11564125 42.95549279 24.99190778 45.75 25.5 C46.4925 25.665 47.235 25.83 48 26 C48.495 26.99 48.495 26.99 49 28 C49.99 28 50.98 28 52 28 C51.67 29.32 51.34 30.64 51 32 C51.66 32 52.32 32 53 32 C53 32.66 53 33.32 53 34 C51.68 34 50.36 34 49 34 C48.34 34.66 47.68 35.32 47 36 C46.67 35.01 46.34 34.02 46 33 C46.66 32.01 47.32 31.02 48 30 C47.34 29.67 46.68 29.34 46 29 C45.01 29.66 44.02 30.32 43 31 C43.495 31.99 43.495 31.99 44 33 C43.34 33 42.68 33 42 33 C41.505 33.99 41.505 33.99 41 35 C41 34.34 41 33.68 41 33 C40.01 32.67 39.02 32.34 38 32 C38 31.67 38 31.34 38 31 C37.34 31 36.68 31 36 31 C35.67 32.32 35.34 33.64 35 35 C36.98 34.505 36.98 34.505 39 34 C39.33 34.99 39.66 35.98 40 37 C38.1875 37.6875 38.1875 37.6875 36 38 C34.0418364 36.47698387 33.10886989 35.21773977 32 33 C31.34 32.34 30.68 31.68 30 31 C30 30 30 29 30 28 C29.17503935 25.84146359 29.17503935 25.84146359 27.0625 25.0625 C25 24 25 24 23 21 C22.61500109 19.34450469 22.27206865 17.6777567 22 16 C21.67 16.66 21.34 17.32 21 18 C20.13375 17.54625 19.2675 17.0925 18.375 16.625 C15.28523093 15.13733341 12.27069152 14.0123569 9 13 C9.33 12.34 9.66 11.68 10 11 C8.18777466 8.9375006 8.18777466 8.9375006 6 7 C5.01 7 4.02 7 3 7 C1.3125 5.75 1.3125 5.75 0 4 C0 2.68 0 1.36 0 0 Z " fill="#0E0E0E" transform="translate(60,73)"/>
<path d="M0 0 C1.74430261 3.16325282 2.66392585 6.21224575 3.5078125 9.71875 C3.77207031 10.81574219 4.03632813 11.91273438 4.30859375 13.04296875 C4.57800781 14.18378906 4.84742188 15.32460938 5.125 16.5 C5.40214844 17.64082031 5.67929687 18.78164063 5.96484375 19.95703125 C8 28.48864686 8 28.48864686 8 33 C8.66 33.33 9.32 33.66 10 34 C10.59765625 36.58203125 10.59765625 36.58203125 11.0625 39.8125 C11.57099229 43.26268323 12.07902227 46.63394865 13 50 C13.66 48.68 14.32 47.36 15 46 C15.43219372 52.63420828 15.85882154 59.26875838 16.28173828 65.90356445 C16.42599033 68.15657489 16.57147613 70.40950672 16.71826172 72.66235352 C16.93007401 75.91662597 17.13732069 79.17116342 17.34375 82.42578125 C17.40937134 83.41894852 17.47499268 84.41211578 17.54260254 85.43537903 C17.95109496 91.96560716 18.07549535 98.45761911 18 105 C15 106 15 106 12.8125 105.0625 C12.214375 104.711875 11.61625 104.36125 11 104 C11.185625 103.113125 11.37125 102.22625 11.5625 101.3125 C12.63369974 93.93480035 11.45492486 86.25115779 10 79 C9.85590271 77.33487576 9.73178837 75.66793256 9.625 74 C9.16332308 68.42960303 7.98108178 63.16392365 6.62109375 57.75 C5.99005014 54.95594528 5.9924775 52.50233615 6.03515625 49.65234375 C6.11615836 41.60999129 5.60553352 33.88388846 4 26 C3.68160904 24.08430311 3.36941255 22.16756931 3.0625 20.25 C2.44658184 16.48502658 1.75184752 12.77510971 0.875 9.0625 C0.15674887 5.97626469 -0.20565779 3.18769575 0 0 Z " fill="#232323" transform="translate(252,259)"/>
<path d="M0 0 C4.95 0 9.9 0 15 0 C15 4.95 15 9.9 15 15 C19.95 15 24.9 15 30 15 C30 19.95 30 24.9 30 30 C27.4609375 29.96744792 24.921875 29.93489583 22.3828125 29.90234375 C19.9831415 29.83750743 19.9831415 29.83750743 18 31 C17.69449219 30.43152344 17.38898438 29.86304687 17.07421875 29.27734375 C13.4318796 23.1315377 9.47460175 19.9389427 3.29296875 16.41015625 C1 15 1 15 0 13 C-0.1393329 8.66396021 -0.04254111 4.33919329 0 0 Z " fill="#EDEDED" transform="translate(285,30)"/>
<path d="M0 0 C0.99 0 1.98 0 3 0 C3.02712066 1.43739513 3.04645067 2.87493863 3.0625 4.3125 C3.07410156 5.11300781 3.08570313 5.91351563 3.09765625 6.73828125 C3 9 3 9 2 12 C2 12.99 2 13.98 2 15 C1.979375 16.010625 1.95875 17.02125 1.9375 18.0625 C1.78892965 20.93459792 1.78892965 20.93459792 3 23 C2.01 23 1.02 23 0 23 C0.99 25.31 1.98 27.62 3 30 C1.02 30.99 1.02 30.99 -1 32 C7.55995596 35.68423013 16.2017469 38.94143568 25 42 C24.401875 42.144375 23.80375 42.28875 23.1875 42.4375 C21.43849596 42.8872439 19.71322977 43.42892341 18 44 C18 44.66 18 45.32 18 46 C19.83700789 46.77242269 19.83700789 46.77242269 22 47 C23.77190909 45.64555699 23.77190909 45.64555699 25 44 C26.9375 44.8125 26.9375 44.8125 29 46 C29.33 46.99 29.66 47.98 30 49 C30.66 49.66 31.32 50.32 32 51 C31.67 51.99 31.34 52.98 31 54 C26.89532185 52.58481243 22.79135453 51.16757401 18.6875 49.75 C17.53958984 49.35425781 16.39167969 48.95851562 15.20898438 48.55078125 C8.11476754 46.0989556 1.04463529 43.59092484 -6 41 C-6.4234968 31.98304735 -4.80140368 23.64827923 -3 14.875 C-2.71006248 13.4272583 -2.42099334 11.9793424 -2.1328125 10.53125 C-1.43186667 7.01877022 -0.71922815 3.50878771 0 0 Z " fill="#181818" transform="translate(18,113)"/>
<path d="M0 0 C22.77 0 45.54 0 69 0 C69 0.33 69 0.66 69 1 C65.7 1 62.4 1 59 1 C59 3.64 59 6.28 59 9 C44.15 9 29.3 9 14 9 C14 6.69 14 4.38 14 2 C7.07 1.505 7.07 1.505 0 1 C0 0.67 0 0.34 0 0 Z " fill="#F4F4F4" transform="translate(196,376)"/>
<path d="M0 0 C5.04361804 -0.53090716 8.46135113 0.84317299 12.98828125 2.77734375 C16.65211692 4.26473748 20.36977695 5.51567913 24.125 6.75 C25.13904907 7.08390747 25.13904907 7.08390747 26.17358398 7.42456055 C27.78159119 7.95214587 29.39067949 8.47643439 31 9 C30.67 9.66 30.34 10.32 30 11 C29.92907158 13.2072923 29.91584975 15.41667452 29.9375 17.625 C29.958125 19.72875 29.97875 21.8325 30 24 C25.05 24 20.1 24 15 24 C15 19.05 15 14.1 15 9 C10.05 9 5.1 9 0 9 C0 6.03 0 3.06 0 0 Z " fill="#EDEDED" transform="translate(15,156)"/>
<path d="M0 0 C6.08723655 -0.02467081 12.17444417 -0.04284604 18.26171875 -0.05493164 C20.33366401 -0.05996852 22.4056057 -0.06679825 24.47753906 -0.07543945 C27.45118082 -0.08753321 30.42477569 -0.09323467 33.3984375 -0.09765625 C34.32868744 -0.10281754 35.25893738 -0.10797882 36.21737671 -0.11329651 C37.07811798 -0.11337204 37.93885925 -0.11344757 38.82568359 -0.11352539 C39.58513275 -0.115746 40.34458191 -0.11796661 41.12704468 -0.12025452 C43 0 43 0 45 1 C45 3.31 45 5.62 45 8 C30.15 8 15.3 8 0 8 C0 5.36 0 2.72 0 0 Z " fill="#EFEFEF" transform="translate(120,377)"/>
<path d="M0 0 C1.32 0 2.64 0 4 0 C4 4.95 4 9.9 4 15 C8.95 15 13.9 15 19 15 C19 19.95 19 24.9 19 30 C14.05 30.33 9.1 30.66 4 31 C3.67 33.31 3.34 35.62 3 38 C2.67 38 2.34 38 2 38 C1.34 25.46 0.68 12.92 0 0 Z " fill="#EEEEEE" transform="translate(266,300)"/>
<path d="M0 0 C0.66 0 1.32 0 2 0 C4.03165952 4.33420699 4.52060632 8.28596212 5 13 C11.02900687 12.48758893 17.02004643 11.930215 23 11 C22.67 13.31 22.34 15.62 22 18 C17.05 18 12.1 18 7 18 C7 22.95 7 27.9 7 33 C4.69 33 2.38 33 0 33 C-0.33 36.96 -0.66 40.92 -1 45 C-1.33 45 -1.66 45 -2 45 C-2.05008562 40.52003377 -2.08603769 36.04022339 -2.10986328 31.56005859 C-2.11981384 30.04147496 -2.13337916 28.52290993 -2.15087891 27.00439453 C-2.25434493 17.7837455 -1.9458199 9.06879307 0 0 Z " fill="#E5E5E5" transform="translate(263,162)"/>
<path d="M0 0 C1.39456867 0.00574201 2.78910972 0.01875397 4.18359375 0.03515625 C6.63796875 0.05578125 9.09234375 0.07640625 11.62109375 0.09765625 C11.62109375 5.04765625 11.62109375 9.99765625 11.62109375 15.09765625 C3.70109375 15.59265625 3.70109375 15.59265625 -4.37890625 16.09765625 C-4.39953125 13.64328125 -4.42015625 11.18890625 -4.44140625 8.66015625 C-4.45051025 7.88615479 -4.45961426 7.11215332 -4.46899414 6.31469727 C-4.47615538 4.57543908 -4.42915327 2.83620321 -4.37890625 1.09765625 C-3.37890625 0.09765625 -3.37890625 0.09765625 0 0 Z " fill="#FFFFFF" transform="translate(273.37890625,329.90234375)"/>
<path d="M0 0 C1.39456867 0.00574201 2.78910972 0.01875397 4.18359375 0.03515625 C6.63796875 0.05578125 9.09234375 0.07640625 11.62109375 0.09765625 C11.62109375 5.04765625 11.62109375 9.99765625 11.62109375 15.09765625 C6.67109375 15.09765625 1.72109375 15.09765625 -3.37890625 15.09765625 C-4.2578125 4.2578125 -4.2578125 4.2578125 -4.37890625 1.09765625 C-3.37890625 0.09765625 -3.37890625 0.09765625 0 0 Z " fill="#EEEEEE" transform="translate(273.37890625,344.90234375)"/>
<path d="M0 0 C0.66 0 1.32 0 2 0 C5.60178306 8.70430906 5.60178306 8.70430906 5 14 C4.1875 15.9375 4.1875 15.9375 3 18 C2.525625 19.134375 2.05125 20.26875 1.5625 21.4375 C0 25 0 25 -1.6875 27.75 C-3.25193551 29.99775058 -3.25193551 29.99775058 -3 33 C-5.5 35.1875 -5.5 35.1875 -8 37 C-8.66 36.34 -9.32 35.68 -10 35 C-9.625 32.375 -9.625 32.375 -9 30 C-9.66 29.67 -10.32 29.34 -11 29 C-10.34 27.68 -9.68 26.36 -9 25 C-8.34 25 -7.68 25 -7 25 C-5.97672746 20.92067585 -4.95872452 16.84049339 -3.96484375 12.75390625 C-3.45117188 10.65820312 -3.45117188 10.65820312 -2.9375 8.5625 C-2.76412109 7.84384766 -2.59074219 7.12519531 -2.41210938 6.38476562 C-1.11278195 1.11278195 -1.11278195 1.11278195 0 0 Z " fill="#0E0E0E" transform="translate(313,101)"/>
<path d="M0 0 C3.53640412 2.23972261 4.60286482 4.10798056 6 8 C6.66 8.66 7.32 9.32 8 10 C8.125 12.625 8.125 12.625 8 15 C8.66 15 9.32 15 10 15 C9.34 17.64 8.68 20.28 8 23 C9.65 22.34 11.3 21.68 13 21 C13.45375 21.78375 13.9075 22.5675 14.375 23.375 C15.88428742 26.03698031 15.88428742 26.03698031 18 28 C15 29 15 29 13 28.0625 C12.01 27.5365625 12.01 27.5365625 11 27 C10.01 27 9.02 27 8 27 C8 26.34 8 25.68 8 25 C7.32453125 24.87882812 6.6490625 24.75765625 5.953125 24.6328125 C5.06109375 24.46523437 4.1690625 24.29765625 3.25 24.125 C2.36828125 23.96257812 1.4865625 23.80015625 0.578125 23.6328125 C-1.86947744 23.03203736 -3.80599857 22.22002883 -6 21 C-5.05066101 17.64566891 -4.10251165 14.30753495 -3 11 C-3 11.66 -3 12.32 -3 13 C-2.34 12.67 -1.68 12.34 -1 12 C-0.32585108 7.88769156 0 4.16980357 0 0 Z " fill="#1C1C1C" transform="translate(32,126)"/>
<path d="M0 0 C4.95 0 9.9 0 15 0 C15 4.95 15 9.9 15 15 C6.585 15.495 6.585 15.495 -2 16 C-1.34 15.67 -0.68 15.34 0 15 C0 10.05 0 5.1 0 0 Z " fill="#FFFFFF" transform="translate(255,15)"/>
<path d="M0 0 C4.95 0 9.9 0 15 0 C15 4.95 15 9.9 15 15 C10.05 15 5.1 15 0 15 C0 10.05 0 5.1 0 0 Z " fill="#FFFFFF" transform="translate(330,360)"/>
<path d="M0 0 C4.95 0 9.9 0 15 0 C15 4.95 15 9.9 15 15 C10.05 15 5.1 15 0 15 C0 10.05 0 5.1 0 0 Z " fill="#EEEEEE" transform="translate(315,360)"/>
<path d="M0 0 C4.95 0 9.9 0 15 0 C15 4.95 15 9.9 15 15 C10.05 15 5.1 15 0 15 C0 10.05 0 5.1 0 0 Z " fill="#FFFFFF" transform="translate(300,360)"/>
<path d="M0 0 C4.95 0 9.9 0 15 0 C15 4.95 15 9.9 15 15 C10.05 15 5.1 15 0 15 C0 10.05 0 5.1 0 0 Z " fill="#EEEEEE" transform="translate(285,360)"/>
<path d="M0 0 C4.95 0 9.9 0 15 0 C15 4.95 15 9.9 15 15 C10.05 15 5.1 15 0 15 C0 10.05 0 5.1 0 0 Z " fill="#EEEEEE" transform="translate(45,360)"/>
<path d="M0 0 C4.95 0 9.9 0 15 0 C15 4.95 15 9.9 15 15 C10.05 15 5.1 15 0 15 C0 10.05 0 5.1 0 0 Z " fill="#FFFFFF" transform="translate(30,360)"/>
<path d="M0 0 C4.95 0 9.9 0 15 0 C15 4.95 15 9.9 15 15 C10.05 15 5.1 15 0 15 C0 10.05 0 5.1 0 0 Z " fill="#EEEEEE" transform="translate(15,360)"/>
<path d="M0 0 C4.95 0 9.9 0 15 0 C15 4.95 15 9.9 15 15 C10.05 15 5.1 15 0 15 C0 10.05 0 5.1 0 0 Z " fill="#FFFFFF" transform="translate(315,345)"/>
<path d="M0 0 C4.95 0 9.9 0 15 0 C15 4.95 15 9.9 15 15 C10.05 15 5.1 15 0 15 C0 10.05 0 5.1 0 0 Z " fill="#EEEEEE" transform="translate(300,345)"/>
<path d="M0 0 C4.95 0 9.9 0 15 0 C15 4.95 15 9.9 15 15 C10.05 15 5.1 15 0 15 C0 10.05 0 5.1 0 0 Z " fill="#FFFFFF" transform="translate(285,345)"/>
<path d="M0 0 C4.95 0 9.9 0 15 0 C15 4.95 15 9.9 15 15 C10.05 15 5.1 15 0 15 C0 10.05 0 5.1 0 0 Z " fill="#EEEEEE" transform="translate(60,345)"/>
<path d="M0 0 C4.95 0 9.9 0 15 0 C15 4.95 15 9.9 15 15 C10.05 15 5.1 15 0 15 C0 10.05 0 5.1 0 0 Z " fill="#FFFFFF" transform="translate(45,345)"/>
<path d="M0 0 C4.95 0 9.9 0 15 0 C15 4.95 15 9.9 15 15 C10.05 15 5.1 15 0 15 C0 10.05 0 5.1 0 0 Z " fill="#EEEEEE" transform="translate(30,345)"/>
<path d="M0 0 C4.95 0 9.9 0 15 0 C15 4.95 15 9.9 15 15 C10.05 15 5.1 15 0 15 C0 10.05 0 5.1 0 0 Z " fill="#FFFFFF" transform="translate(15,345)"/>
<path d="M0 0 C4.95 0 9.9 0 15 0 C15 4.95 15 9.9 15 15 C10.05 15 5.1 15 0 15 C0 10.05 0 5.1 0 0 Z " fill="#EEEEEE" transform="translate(0,345)"/>
<path d="M0 0 C4.95 0 9.9 0 15 0 C15 4.95 15 9.9 15 15 C10.05 15 5.1 15 0 15 C0 10.05 0 5.1 0 0 Z " fill="#FFFFFF" transform="translate(330,330)"/>
<path d="M0 0 C4.95 0 9.9 0 15 0 C15 4.95 15 9.9 15 15 C10.05 15 5.1 15 0 15 C0 10.05 0 5.1 0 0 Z " fill="#EEEEEE" transform="translate(315,330)"/>
<path d="M0 0 C4.95 0 9.9 0 15 0 C15 4.95 15 9.9 15 15 C10.05 15 5.1 15 0 15 C0 10.05 0 5.1 0 0 Z " fill="#FFFFFF" transform="translate(300,330)"/>
<path d="M0 0 C4.95 0 9.9 0 15 0 C15 4.95 15 9.9 15 15 C10.05 15 5.1 15 0 15 C0 10.05 0 5.1 0 0 Z " fill="#EEEEEE" transform="translate(285,330)"/>
<path d="M0 0 C4.95 0 9.9 0 15 0 C15 4.95 15 9.9 15 15 C10.05 15 5.1 15 0 15 C0 10.05 0 5.1 0 0 Z " fill="#FFFFFF" transform="translate(60,330)"/>
<path d="M0 0 C4.95 0 9.9 0 15 0 C15 4.95 15 9.9 15 15 C10.05 15 5.1 15 0 15 C0 10.05 0 5.1 0 0 Z " fill="#EEEEEE" transform="translate(45,330)"/>
<path d="M0 0 C4.95 0 9.9 0 15 0 C15 4.95 15 9.9 15 15 C10.05 15 5.1 15 0 15 C0 10.05 0 5.1 0 0 Z " fill="#FFFFFF" transform="translate(30,330)"/>
<path d="M0 0 C4.95 0 9.9 0 15 0 C15 4.95 15 9.9 15 15 C10.05 15 5.1 15 0 15 C0 10.05 0 5.1 0 0 Z " fill="#EEEEEE" transform="translate(15,330)"/>
<path d="M0 0 C4.95 0 9.9 0 15 0 C15 4.95 15 9.9 15 15 C10.05 15 5.1 15 0 15 C0 10.05 0 5.1 0 0 Z " fill="#FFFFFF" transform="translate(0,330)"/>
<path d="M0 0 C4.95 0 9.9 0 15 0 C15 4.95 15 9.9 15 15 C10.05 15 5.1 15 0 15 C0 10.05 0 5.1 0 0 Z " fill="#FFFFFF" transform="translate(315,315)"/>
<path d="M0 0 C4.95 0 9.9 0 15 0 C15 4.95 15 9.9 15 15 C10.05 15 5.1 15 0 15 C0 10.05 0 5.1 0 0 Z " fill="#EEEEEE" transform="translate(300,315)"/>
<path d="M0 0 C4.95 0 9.9 0 15 0 C15 4.95 15 9.9 15 15 C10.05 15 5.1 15 0 15 C0 10.05 0 5.1 0 0 Z " fill="#FFFFFF" transform="translate(285,315)"/>
<path d="M0 0 C4.95 0 9.9 0 15 0 C15 4.95 15 9.9 15 15 C10.05 15 5.1 15 0 15 C0 10.05 0 5.1 0 0 Z " fill="#FFFFFF" transform="translate(45,315)"/>
<path d="M0 0 C4.95 0 9.9 0 15 0 C15 4.95 15 9.9 15 15 C10.05 15 5.1 15 0 15 C0 10.05 0 5.1 0 0 Z " fill="#EEEEEE" transform="translate(30,315)"/>
<path d="M0 0 C4.95 0 9.9 0 15 0 C15 4.95 15 9.9 15 15 C10.05 15 5.1 15 0 15 C0 10.05 0 5.1 0 0 Z " fill="#FFFFFF" transform="translate(15,315)"/>
<path d="M0 0 C4.95 0 9.9 0 15 0 C15 4.95 15 9.9 15 15 C10.05 15 5.1 15 0 15 C0 10.05 0 5.1 0 0 Z " fill="#EEEEEE" transform="translate(0,315)"/>
<path d="M0 0 C4.95 0 9.9 0 15 0 C15 4.95 15 9.9 15 15 C10.05 15 5.1 15 0 15 C0 10.05 0 5.1 0 0 Z " fill="#FFFFFF" transform="translate(330,300)"/>
<path d="M0 0 C4.95 0 9.9 0 15 0 C15 4.95 15 9.9 15 15 C10.05 15 5.1 15 0 15 C0 10.05 0 5.1 0 0 Z " fill="#EEEEEE" transform="translate(315,300)"/>
<path d="M0 0 C4.95 0 9.9 0 15 0 C15 4.95 15 9.9 15 15 C10.05 15 5.1 15 0 15 C0 10.05 0 5.1 0 0 Z " fill="#FFFFFF" transform="translate(300,300)"/>
<path d="M0 0 C4.95 0 9.9 0 15 0 C15 4.95 15 9.9 15 15 C10.05 15 5.1 15 0 15 C0 10.05 0 5.1 0 0 Z " fill="#EEEEEE" transform="translate(285,300)"/>
<path d="M0 0 C4.95 0 9.9 0 15 0 C15 4.95 15 9.9 15 15 C10.05 15 5.1 15 0 15 C0 10.05 0 5.1 0 0 Z " fill="#FFFFFF" transform="translate(270,300)"/>
<path d="M0 0 C4.95 0 9.9 0 15 0 C15 4.95 15 9.9 15 15 C10.05 15 5.1 15 0 15 C0 10.05 0 5.1 0 0 Z " fill="#FFFFFF" transform="translate(60,300)"/>
<path d="M0 0 C4.95 0 9.9 0 15 0 C15 4.95 15 9.9 15 15 C10.05 15 5.1 15 0 15 C0 10.05 0 5.1 0 0 Z " fill="#EEEEEE" transform="translate(45,300)"/>
<path d="M0 0 C4.95 0 9.9 0 15 0 C15 4.95 15 9.9 15 15 C10.05 15 5.1 15 0 15 C0 10.05 0 5.1 0 0 Z " fill="#FFFFFF" transform="translate(30,300)"/>
<path d="M0 0 C4.95 0 9.9 0 15 0 C15 4.95 15 9.9 15 15 C10.05 15 5.1 15 0 15 C0 10.05 0 5.1 0 0 Z " fill="#EEEEEE" transform="translate(15,300)"/>
<path d="M0 0 C4.95 0 9.9 0 15 0 C15 4.95 15 9.9 15 15 C10.05 15 5.1 15 0 15 C0 10.05 0 5.1 0 0 Z " fill="#FFFFFF" transform="translate(0,300)"/>
<path d="M0 0 C4.95 0 9.9 0 15 0 C15 4.95 15 9.9 15 15 C10.05 15 5.1 15 0 15 C0 10.05 0 5.1 0 0 Z " fill="#FFFFFF" transform="translate(315,285)"/>
<path d="M0 0 C4.95 0 9.9 0 15 0 C15 4.95 15 9.9 15 15 C10.05 15 5.1 15 0 15 C0 10.05 0 5.1 0 0 Z " fill="#EEEEEE" transform="translate(300,285)"/>
<path d="M0 0 C4.95 0 9.9 0 15 0 C15 4.95 15 9.9 15 15 C10.05 15 5.1 15 0 15 C0 10.05 0 5.1 0 0 Z " fill="#FFFFFF" transform="translate(285,285)"/>
<path d="M0 0 C4.95 0 9.9 0 15 0 C15 4.95 15 9.9 15 15 C10.05 15 5.1 15 0 15 C0 10.05 0 5.1 0 0 Z " fill="#FFFFFF" transform="translate(45,285)"/>
<path d="M0 0 C4.95 0 9.9 0 15 0 C15 4.95 15 9.9 15 15 C10.05 15 5.1 15 0 15 C0 10.05 0 5.1 0 0 Z " fill="#EEEEEE" transform="translate(30,285)"/>
<path d="M0 0 C4.95 0 9.9 0 15 0 C15 4.95 15 9.9 15 15 C10.05 15 5.1 15 0 15 C0 10.05 0 5.1 0 0 Z " fill="#FFFFFF" transform="translate(15,285)"/>
<path d="M0 0 C4.95 0 9.9 0 15 0 C15 4.95 15 9.9 15 15 C10.05 15 5.1 15 0 15 C0 10.05 0 5.1 0 0 Z " fill="#EEEEEE" transform="translate(0,285)"/>
<path d="M0 0 C4.95 0 9.9 0 15 0 C15 4.95 15 9.9 15 15 C10.05 15 5.1 15 0 15 C0 10.05 0 5.1 0 0 Z " fill="#FFFFFF" transform="translate(330,270)"/>
<path d="M0 0 C4.95 0 9.9 0 15 0 C15 4.95 15 9.9 15 15 C10.05 15 5.1 15 0 15 C0 10.05 0 5.1 0 0 Z " fill="#EEEEEE" transform="translate(315,270)"/>
<path d="M0 0 C4.95 0 9.9 0 15 0 C15 4.95 15 9.9 15 15 C10.05 15 5.1 15 0 15 C0 10.05 0 5.1 0 0 Z " fill="#FFFFFF" transform="translate(300,270)"/>
<path d="M0 0 C4.95 0 9.9 0 15 0 C15 4.95 15 9.9 15 15 C10.05 15 5.1 15 0 15 C0 10.05 0 5.1 0 0 Z " fill="#EEEEEE" transform="translate(285,270)"/>
<path d="M0 0 C4.95 0 9.9 0 15 0 C15 4.95 15 9.9 15 15 C10.05 15 5.1 15 0 15 C0 10.05 0 5.1 0 0 Z " fill="#FFFFFF" transform="translate(270,270)"/>
<path d="M0 0 C4.95 0 9.9 0 15 0 C15 4.95 15 9.9 15 15 C10.05 15 5.1 15 0 15 C0 10.05 0 5.1 0 0 Z " fill="#FFFFFF" transform="translate(60,270)"/>
<path d="M0 0 C4.95 0 9.9 0 15 0 C15 4.95 15 9.9 15 15 C10.05 15 5.1 15 0 15 C0 10.05 0 5.1 0 0 Z " fill="#EEEEEE" transform="translate(45,270)"/>
<path d="M0 0 C4.95 0 9.9 0 15 0 C15 4.95 15 9.9 15 15 C10.05 15 5.1 15 0 15 C0 10.05 0 5.1 0 0 Z " fill="#FFFFFF" transform="translate(30,270)"/>
<path d="M0 0 C4.95 0 9.9 0 15 0 C15 4.95 15 9.9 15 15 C10.05 15 5.1 15 0 15 C0 10.05 0 5.1 0 0 Z " fill="#EEEEEE" transform="translate(15,270)"/>
<path d="M0 0 C4.95 0 9.9 0 15 0 C15 4.95 15 9.9 15 15 C10.05 15 5.1 15 0 15 C0 10.05 0 5.1 0 0 Z " fill="#FFFFFF" transform="translate(0,270)"/>
<path d="M0 0 C4.95 0 9.9 0 15 0 C15 4.95 15 9.9 15 15 C10.05 15 5.1 15 0 15 C0 10.05 0 5.1 0 0 Z " fill="#FFFFFF" transform="translate(315,255)"/>
<path d="M0 0 C4.95 0 9.9 0 15 0 C15 4.95 15 9.9 15 15 C10.05 15 5.1 15 0 15 C0 10.05 0 5.1 0 0 Z " fill="#EEEEEE" transform="translate(300,255)"/>
<path d="M0 0 C4.95 0 9.9 0 15 0 C15 4.95 15 9.9 15 15 C10.05 15 5.1 15 0 15 C0 10.05 0 5.1 0 0 Z " fill="#FFFFFF" transform="translate(285,255)"/>
<path d="M0 0 C4.95 0 9.9 0 15 0 C15 4.95 15 9.9 15 15 C10.05 15 5.1 15 0 15 C0 10.05 0 5.1 0 0 Z " fill="#EEEEEE" transform="translate(270,255)"/>
<path d="M0 0 C4.95 0 9.9 0 15 0 C15 4.95 15 9.9 15 15 C10.05 15 5.1 15 0 15 C0 10.05 0 5.1 0 0 Z " fill="#FFFFFF" transform="translate(45,255)"/>
<path d="M0 0 C4.95 0 9.9 0 15 0 C15 4.95 15 9.9 15 15 C10.05 15 5.1 15 0 15 C0 10.05 0 5.1 0 0 Z " fill="#EEEEEE" transform="translate(30,255)"/>
<path d="M0 0 C4.95 0 9.9 0 15 0 C15 4.95 15 9.9 15 15 C10.05 15 5.1 15 0 15 C0 10.05 0 5.1 0 0 Z " fill="#FFFFFF" transform="translate(15,255)"/>
<path d="M0 0 C4.95 0 9.9 0 15 0 C15 4.95 15 9.9 15 15 C10.05 15 5.1 15 0 15 C0 10.05 0 5.1 0 0 Z " fill="#EEEEEE" transform="translate(0,255)"/>
<path d="M0 0 C4.95 0 9.9 0 15 0 C15 4.95 15 9.9 15 15 C10.05 15 5.1 15 0 15 C0 10.05 0 5.1 0 0 Z " fill="#FFFFFF" transform="translate(330,240)"/>
<path d="M0 0 C4.95 0 9.9 0 15 0 C15 4.95 15 9.9 15 15 C10.05 15 5.1 15 0 15 C0 10.05 0 5.1 0 0 Z " fill="#EEEEEE" transform="translate(315,240)"/>
<path d="M0 0 C4.95 0 9.9 0 15 0 C15 4.95 15 9.9 15 15 C10.05 15 5.1 15 0 15 C0 10.05 0 5.1 0 0 Z " fill="#FFFFFF" transform="translate(300,240)"/>
<path d="M0 0 C4.95 0 9.9 0 15 0 C15 4.95 15 9.9 15 15 C10.05 15 5.1 15 0 15 C0 10.05 0 5.1 0 0 Z " fill="#EEEEEE" transform="translate(285,240)"/>
<path d="M0 0 C4.95 0 9.9 0 15 0 C15 4.95 15 9.9 15 15 C10.05 15 5.1 15 0 15 C0 10.05 0 5.1 0 0 Z " fill="#FFFFFF" transform="translate(270,240)"/>
<path d="M0 0 C4.95 0 9.9 0 15 0 C15 4.95 15 9.9 15 15 C10.05 15 5.1 15 0 15 C0 10.05 0 5.1 0 0 Z " fill="#FFFFFF" transform="translate(60,240)"/>
<path d="M0 0 C4.95 0 9.9 0 15 0 C15 4.95 15 9.9 15 15 C10.05 15 5.1 15 0 15 C0 10.05 0 5.1 0 0 Z " fill="#EEEEEE" transform="translate(45,240)"/>
<path d="M0 0 C4.95 0 9.9 0 15 0 C15 4.95 15 9.9 15 15 C10.05 15 5.1 15 0 15 C0 10.05 0 5.1 0 0 Z " fill="#FFFFFF" transform="translate(30,240)"/>
<path d="M0 0 C4.95 0 9.9 0 15 0 C15 4.95 15 9.9 15 15 C10.05 15 5.1 15 0 15 C0 10.05 0 5.1 0 0 Z " fill="#EEEEEE" transform="translate(15,240)"/>
<path d="M0 0 C4.95 0 9.9 0 15 0 C15 4.95 15 9.9 15 15 C10.05 15 5.1 15 0 15 C0 10.05 0 5.1 0 0 Z " fill="#FFFFFF" transform="translate(0,240)"/>
<path d="M0 0 C4.95 0 9.9 0 15 0 C15 4.95 15 9.9 15 15 C10.05 15 5.1 15 0 15 C0 10.05 0 5.1 0 0 Z " fill="#FFFFFF" transform="translate(315,225)"/>
<path d="M0 0 C4.95 0 9.9 0 15 0 C15 4.95 15 9.9 15 15 C10.05 15 5.1 15 0 15 C0 10.05 0 5.1 0 0 Z " fill="#EEEEEE" transform="translate(300,225)"/>
<path d="M0 0 C4.95 0 9.9 0 15 0 C15 4.95 15 9.9 15 15 C10.05 15 5.1 15 0 15 C0 10.05 0 5.1 0 0 Z " fill="#FFFFFF" transform="translate(285,225)"/>
<path d="M0 0 C4.95 0 9.9 0 15 0 C15 4.95 15 9.9 15 15 C10.05 15 5.1 15 0 15 C0 10.05 0 5.1 0 0 Z " fill="#EEEEEE" transform="translate(270,225)"/>
<path d="M0 0 C4.95 0 9.9 0 15 0 C15 4.95 15 9.9 15 15 C10.05 15 5.1 15 0 15 C0 10.05 0 5.1 0 0 Z " fill="#EEEEEE" transform="translate(60,225)"/>
<path d="M0 0 C4.95 0 9.9 0 15 0 C15 4.95 15 9.9 15 15 C10.05 15 5.1 15 0 15 C0 10.05 0 5.1 0 0 Z " fill="#FFFFFF" transform="translate(45,225)"/>
<path d="M0 0 C4.95 0 9.9 0 15 0 C15 4.95 15 9.9 15 15 C10.05 15 5.1 15 0 15 C0 10.05 0 5.1 0 0 Z " fill="#EEEEEE" transform="translate(30,225)"/>
<path d="M0 0 C4.95 0 9.9 0 15 0 C15 4.95 15 9.9 15 15 C10.05 15 5.1 15 0 15 C0 10.05 0 5.1 0 0 Z " fill="#FFFFFF" transform="translate(15,225)"/>
<path d="M0 0 C4.95 0 9.9 0 15 0 C15 4.95 15 9.9 15 15 C10.05 15 5.1 15 0 15 C0 10.05 0 5.1 0 0 Z " fill="#EEEEEE" transform="translate(0,225)"/>
<path d="M0 0 C4.95 0 9.9 0 15 0 C15 4.95 15 9.9 15 15 C10.05 15 5.1 15 0 15 C0 10.05 0 5.1 0 0 Z " fill="#FFFFFF" transform="translate(330,210)"/>
<path d="M0 0 C4.95 0 9.9 0 15 0 C15 4.95 15 9.9 15 15 C10.05 15 5.1 15 0 15 C0 10.05 0 5.1 0 0 Z " fill="#EEEEEE" transform="translate(315,210)"/>
<path d="M0 0 C4.95 0 9.9 0 15 0 C15 4.95 15 9.9 15 15 C10.05 15 5.1 15 0 15 C0 10.05 0 5.1 0 0 Z " fill="#FFFFFF" transform="translate(300,210)"/>
<path d="M0 0 C4.95 0 9.9 0 15 0 C15 4.95 15 9.9 15 15 C10.05 15 5.1 15 0 15 C0 10.05 0 5.1 0 0 Z " fill="#EEEEEE" transform="translate(285,210)"/>
<path d="M0 0 C4.95 0 9.9 0 15 0 C15 4.95 15 9.9 15 15 C10.05 15 5.1 15 0 15 C0 10.05 0 5.1 0 0 Z " fill="#FFFFFF" transform="translate(270,210)"/>
<path d="M0 0 C4.95 0 9.9 0 15 0 C15 4.95 15 9.9 15 15 C10.05 15 5.1 15 0 15 C0 10.05 0 5.1 0 0 Z " fill="#FFFFFF" transform="translate(60,210)"/>
<path d="M0 0 C4.95 0 9.9 0 15 0 C15 4.95 15 9.9 15 15 C10.05 15 5.1 15 0 15 C0 10.05 0 5.1 0 0 Z " fill="#EEEEEE" transform="translate(45,210)"/>
<path d="M0 0 C4.95 0 9.9 0 15 0 C15 4.95 15 9.9 15 15 C10.05 15 5.1 15 0 15 C0 10.05 0 5.1 0 0 Z " fill="#FFFFFF" transform="translate(30,210)"/>
<path d="M0 0 C4.95 0 9.9 0 15 0 C15 4.95 15 9.9 15 15 C10.05 15 5.1 15 0 15 C0 10.05 0 5.1 0 0 Z " fill="#EEEEEE" transform="translate(15,210)"/>
<path d="M0 0 C4.95 0 9.9 0 15 0 C15 4.95 15 9.9 15 15 C10.05 15 5.1 15 0 15 C0 10.05 0 5.1 0 0 Z " fill="#FFFFFF" transform="translate(0,210)"/>
<path d="M0 0 C4.95 0 9.9 0 15 0 C15 4.95 15 9.9 15 15 C10.05 15 5.1 15 0 15 C0 10.05 0 5.1 0 0 Z " fill="#FFFFFF" transform="translate(315,195)"/>
<path d="M0 0 C4.95 0 9.9 0 15 0 C15 4.95 15 9.9 15 15 C10.05 15 5.1 15 0 15 C0 10.05 0 5.1 0 0 Z " fill="#EEEEEE" transform="translate(300,195)"/>
<path d="M0 0 C4.95 0 9.9 0 15 0 C15 4.95 15 9.9 15 15 C10.05 15 5.1 15 0 15 C0 10.05 0 5.1 0 0 Z " fill="#FFFFFF" transform="translate(285,195)"/>
<path d="M0 0 C4.95 0 9.9 0 15 0 C15 4.95 15 9.9 15 15 C10.05 15 5.1 15 0 15 C0 10.05 0 5.1 0 0 Z " fill="#EEEEEE" transform="translate(270,195)"/>
<path d="M0 0 C4.95 0 9.9 0 15 0 C15 4.95 15 9.9 15 15 C10.05 15 5.1 15 0 15 C0 10.05 0 5.1 0 0 Z " fill="#FFFFFF" transform="translate(45,195)"/>
<path d="M0 0 C4.95 0 9.9 0 15 0 C15 4.95 15 9.9 15 15 C10.05 15 5.1 15 0 15 C0 10.05 0 5.1 0 0 Z " fill="#EEEEEE" transform="translate(30,195)"/>
<path d="M0 0 C4.95 0 9.9 0 15 0 C15 4.95 15 9.9 15 15 C10.05 15 5.1 15 0 15 C0 10.05 0 5.1 0 0 Z " fill="#FFFFFF" transform="translate(15,195)"/>
<path d="M0 0 C4.95 0 9.9 0 15 0 C15 4.95 15 9.9 15 15 C10.05 15 5.1 15 0 15 C0 10.05 0 5.1 0 0 Z " fill="#EEEEEE" transform="translate(0,195)"/>
<path d="M0 0 C4.95 0 9.9 0 15 0 C15 4.95 15 9.9 15 15 C10.05 15 5.1 15 0 15 C0 10.05 0 5.1 0 0 Z " fill="#FFFFFF" transform="translate(330,180)"/>
<path d="M0 0 C4.95 0 9.9 0 15 0 C15 4.95 15 9.9 15 15 C10.05 15 5.1 15 0 15 C0 10.05 0 5.1 0 0 Z " fill="#EEEEEE" transform="translate(315,180)"/>
<path d="M0 0 C4.95 0 9.9 0 15 0 C15 4.95 15 9.9 15 15 C10.05 15 5.1 15 0 15 C0 10.05 0 5.1 0 0 Z " fill="#FFFFFF" transform="translate(300,180)"/>
<path d="M0 0 C4.95 0 9.9 0 15 0 C15 4.95 15 9.9 15 15 C10.05 15 5.1 15 0 15 C0 10.05 0 5.1 0 0 Z " fill="#FFFFFF" transform="translate(270,180)"/>
<path d="M0 0 C4.95 0 9.9 0 15 0 C15 4.95 15 9.9 15 15 C10.05 15 5.1 15 0 15 C0 10.05 0 5.1 0 0 Z " fill="#FFFFFF" transform="translate(60,180)"/>
<path d="M0 0 C4.95 0 9.9 0 15 0 C15 4.95 15 9.9 15 15 C10.05 15 5.1 15 0 15 C0 10.05 0 5.1 0 0 Z " fill="#EEEEEE" transform="translate(45,180)"/>
<path d="M0 0 C4.95 0 9.9 0 15 0 C15 4.95 15 9.9 15 15 C10.05 15 5.1 15 0 15 C0 10.05 0 5.1 0 0 Z " fill="#FFFFFF" transform="translate(30,180)"/>
<path d="M0 0 C4.95 0 9.9 0 15 0 C15 4.95 15 9.9 15 15 C10.05 15 5.1 15 0 15 C0 10.05 0 5.1 0 0 Z " fill="#EEEEEE" transform="translate(15,180)"/>
<path d="M0 0 C4.95 0 9.9 0 15 0 C15 4.95 15 9.9 15 15 C10.05 15 5.1 15 0 15 C0 10.05 0 5.1 0 0 Z " fill="#FFFFFF" transform="translate(0,180)"/>
<path d="M0 0 C4.95 0 9.9 0 15 0 C15 4.95 15 9.9 15 15 C10.05 15 5.1 15 0 15 C0 10.05 0 5.1 0 0 Z " fill="#EEEEEE" transform="translate(330,165)"/>
<path d="M0 0 C4.95 0 9.9 0 15 0 C15 4.95 15 9.9 15 15 C10.05 15 5.1 15 0 15 C0 10.05 0 5.1 0 0 Z " fill="#FFFFFF" transform="translate(315,165)"/>
<path d="M0 0 C4.95 0 9.9 0 15 0 C15 4.95 15 9.9 15 15 C10.05 15 5.1 15 0 15 C0 10.05 0 5.1 0 0 Z " fill="#FFFFFF" transform="translate(15,165)"/>
<path d="M0 0 C4.95 0 9.9 0 15 0 C15 4.95 15 9.9 15 15 C10.05 15 5.1 15 0 15 C0 10.05 0 5.1 0 0 Z " fill="#EEEEEE" transform="translate(0,165)"/>
<path d="M0 0 C4.95 0 9.9 0 15 0 C15 4.95 15 9.9 15 15 C10.05 15 5.1 15 0 15 C0 10.05 0 5.1 0 0 Z " fill="#FFFFFF" transform="translate(330,120)"/>
<path d="M0 0 C4.95 0 9.9 0 15 0 C15 4.95 15 9.9 15 15 C10.05 15 5.1 15 0 15 C0 10.05 0 5.1 0 0 Z " fill="#EEEEEE" transform="translate(330,105)"/>
<path d="M0 0 C4.95 0 9.9 0 15 0 C15 4.95 15 9.9 15 15 C10.05 15 5.1 15 0 15 C0 10.05 0 5.1 0 0 Z " fill="#EEEEEE" transform="translate(0,105)"/>
<path d="M0 0 C4.95 0 9.9 0 15 0 C15 4.95 15 9.9 15 15 C10.05 15 5.1 15 0 15 C0 10.05 0 5.1 0 0 Z " fill="#FFFFFF" transform="translate(330,90)"/>
<path d="M0 0 C4.95 0 9.9 0 15 0 C15 4.95 15 9.9 15 15 C10.05 15 5.1 15 0 15 C0 10.05 0 5.1 0 0 Z " fill="#FFFFFF" transform="translate(0,90)"/>
<path d="M0 0 C4.95 0 9.9 0 15 0 C15 4.95 15 9.9 15 15 C10.05 15 5.1 15 0 15 C0 10.05 0 5.1 0 0 Z " fill="#EEEEEE" transform="translate(330,75)"/>
<path d="M0 0 C4.95 0 9.9 0 15 0 C15 4.95 15 9.9 15 15 C10.05 15 5.1 15 0 15 C0 10.05 0 5.1 0 0 Z " fill="#FFFFFF" transform="translate(315,75)"/>
<path d="M0 0 C4.95 0 9.9 0 15 0 C15 4.95 15 9.9 15 15 C10.05 15 5.1 15 0 15 C0 10.05 0 5.1 0 0 Z " fill="#EEEEEE" transform="translate(0,75)"/>
<path d="M0 0 C4.95 0 9.9 0 15 0 C15 4.95 15 9.9 15 15 C10.05 15 5.1 15 0 15 C0 10.05 0 5.1 0 0 Z " fill="#FFFFFF" transform="translate(330,60)"/>
<path d="M0 0 C4.95 0 9.9 0 15 0 C15 4.95 15 9.9 15 15 C10.05 15 5.1 15 0 15 C0 10.05 0 5.1 0 0 Z " fill="#FFFFFF" transform="translate(0,60)"/>
<path d="M0 0 C4.95 0 9.9 0 15 0 C15 4.95 15 9.9 15 15 C10.05 15 5.1 15 0 15 C0 10.05 0 5.1 0 0 Z " fill="#EEEEEE" transform="translate(330,45)"/>
<path d="M0 0 C4.95 0 9.9 0 15 0 C15 4.95 15 9.9 15 15 C10.05 15 5.1 15 0 15 C0 10.05 0 5.1 0 0 Z " fill="#FFFFFF" transform="translate(315,45)"/>
<path d="M0 0 C4.95 0 9.9 0 15 0 C15 4.95 15 9.9 15 15 C10.05 15 5.1 15 0 15 C0 10.05 0 5.1 0 0 Z " fill="#FFFFFF" transform="translate(15,45)"/>
<path d="M0 0 C4.95 0 9.9 0 15 0 C15 4.95 15 9.9 15 15 C10.05 15 5.1 15 0 15 C0 10.05 0 5.1 0 0 Z " fill="#EEEEEE" transform="translate(0,45)"/>
<path d="M0 0 C4.95 0 9.9 0 15 0 C15 4.95 15 9.9 15 15 C10.05 15 5.1 15 0 15 C0 10.05 0 5.1 0 0 Z " fill="#FFFFFF" transform="translate(330,30)"/>
<path d="M0 0 C4.95 0 9.9 0 15 0 C15 4.95 15 9.9 15 15 C10.05 15 5.1 15 0 15 C0 10.05 0 5.1 0 0 Z " fill="#EEEEEE" transform="translate(315,30)"/>
<path d="M0 0 C4.95 0 9.9 0 15 0 C15 4.95 15 9.9 15 15 C10.05 15 5.1 15 0 15 C0 10.05 0 5.1 0 0 Z " fill="#FFFFFF" transform="translate(300,30)"/>
<path d="M0 0 C4.95 0 9.9 0 15 0 C15 4.95 15 9.9 15 15 C10.05 15 5.1 15 0 15 C0 10.05 0 5.1 0 0 Z " fill="#FFFFFF" transform="translate(30,30)"/>
<path d="M0 0 C4.95 0 9.9 0 15 0 C15 4.95 15 9.9 15 15 C10.05 15 5.1 15 0 15 C0 10.05 0 5.1 0 0 Z " fill="#EEEEEE" transform="translate(15,30)"/>
<path d="M0 0 C4.95 0 9.9 0 15 0 C15 4.95 15 9.9 15 15 C10.05 15 5.1 15 0 15 C0 10.05 0 5.1 0 0 Z " fill="#FFFFFF" transform="translate(0,30)"/>
<path d="M0 0 C4.95 0 9.9 0 15 0 C15 4.95 15 9.9 15 15 C10.05 15 5.1 15 0 15 C0 10.05 0 5.1 0 0 Z " fill="#EEEEEE" transform="translate(330,15)"/>
<path d="M0 0 C4.95 0 9.9 0 15 0 C15 4.95 15 9.9 15 15 C10.05 15 5.1 15 0 15 C0 10.05 0 5.1 0 0 Z " fill="#FFFFFF" transform="translate(315,15)"/>
<path d="M0 0 C4.95 0 9.9 0 15 0 C15 4.95 15 9.9 15 15 C10.05 15 5.1 15 0 15 C0 10.05 0 5.1 0 0 Z " fill="#EEEEEE" transform="translate(300,15)"/>
<path d="M0 0 C4.95 0 9.9 0 15 0 C15 4.95 15 9.9 15 15 C10.05 15 5.1 15 0 15 C0 10.05 0 5.1 0 0 Z " fill="#FFFFFF" transform="translate(285,15)"/>
<path d="M0 0 C4.95 0 9.9 0 15 0 C15 4.95 15 9.9 15 15 C10.05 15 5.1 15 0 15 C0 10.05 0 5.1 0 0 Z " fill="#EEEEEE" transform="translate(270,15)"/>
<path d="M0 0 C4.95 0 9.9 0 15 0 C15 4.95 15 9.9 15 15 C10.05 15 5.1 15 0 15 C0 10.05 0 5.1 0 0 Z " fill="#EEEEEE" transform="translate(60,15)"/>
<path d="M0 0 C4.95 0 9.9 0 15 0 C15 4.95 15 9.9 15 15 C10.05 15 5.1 15 0 15 C0 10.05 0 5.1 0 0 Z " fill="#FFFFFF" transform="translate(45,15)"/>
<path d="M0 0 C4.95 0 9.9 0 15 0 C15 4.95 15 9.9 15 15 C10.05 15 5.1 15 0 15 C0 10.05 0 5.1 0 0 Z " fill="#EEEEEE" transform="translate(30,15)"/>
<path d="M0 0 C4.95 0 9.9 0 15 0 C15 4.95 15 9.9 15 15 C10.05 15 5.1 15 0 15 C0 10.05 0 5.1 0 0 Z " fill="#FFFFFF" transform="translate(15,15)"/>
<path d="M0 0 C4.95 0 9.9 0 15 0 C15 4.95 15 9.9 15 15 C10.05 15 5.1 15 0 15 C0 10.05 0 5.1 0 0 Z " fill="#EEEEEE" transform="translate(0,15)"/>
<path d="M0 0 C4.95 0 9.9 0 15 0 C15 4.95 15 9.9 15 15 C10.05 15 5.1 15 0 15 C0 10.05 0 5.1 0 0 Z " fill="#EEEEEE" transform="translate(315,0)"/>
<path d="M0 0 C4.95 0 9.9 0 15 0 C15 4.95 15 9.9 15 15 C10.05 15 5.1 15 0 15 C0 10.05 0 5.1 0 0 Z " fill="#FFFFFF" transform="translate(300,0)"/>
<path d="M0 0 C4.95 0 9.9 0 15 0 C15 4.95 15 9.9 15 15 C10.05 15 5.1 15 0 15 C0 10.05 0 5.1 0 0 Z " fill="#EEEEEE" transform="translate(285,0)"/>
<path d="M0 0 C4.95 0 9.9 0 15 0 C15 4.95 15 9.9 15 15 C10.05 15 5.1 15 0 15 C0 10.05 0 5.1 0 0 Z " fill="#FFFFFF" transform="translate(270,0)"/>
<path d="M0 0 C4.95 0 9.9 0 15 0 C15 4.95 15 9.9 15 15 C10.05 15 5.1 15 0 15 C0 10.05 0 5.1 0 0 Z " fill="#EEEEEE" transform="translate(255,0)"/>
<path d="M0 0 C4.95 0 9.9 0 15 0 C15 4.95 15 9.9 15 15 C10.05 15 5.1 15 0 15 C0 10.05 0 5.1 0 0 Z " fill="#FFFFFF" transform="translate(240,0)"/>
<path d="M0 0 C4.95 0 9.9 0 15 0 C15 4.95 15 9.9 15 15 C10.05 15 5.1 15 0 15 C0 10.05 0 5.1 0 0 Z " fill="#EEEEEE" transform="translate(225,0)"/>
<path d="M0 0 C4.95 0 9.9 0 15 0 C15 4.95 15 9.9 15 15 C10.05 15 5.1 15 0 15 C0 10.05 0 5.1 0 0 Z " fill="#FFFFFF" transform="translate(90,0)"/>
<path d="M0 0 C4.95 0 9.9 0 15 0 C15 4.95 15 9.9 15 15 C10.05 15 5.1 15 0 15 C0 10.05 0 5.1 0 0 Z " fill="#EEEEEE" transform="translate(75,0)"/>
<path d="M0 0 C4.95 0 9.9 0 15 0 C15 4.95 15 9.9 15 15 C10.05 15 5.1 15 0 15 C0 10.05 0 5.1 0 0 Z " fill="#FFFFFF" transform="translate(60,0)"/>
<path d="M0 0 C4.95 0 9.9 0 15 0 C15 4.95 15 9.9 15 15 C10.05 15 5.1 15 0 15 C0 10.05 0 5.1 0 0 Z " fill="#EEEEEE" transform="translate(45,0)"/>
<path d="M0 0 C4.95 0 9.9 0 15 0 C15 4.95 15 9.9 15 15 C10.05 15 5.1 15 0 15 C0 10.05 0 5.1 0 0 Z " fill="#FFFFFF" transform="translate(30,0)"/>
<path d="M0 0 C4.95 0 9.9 0 15 0 C15 4.95 15 9.9 15 15 C10.05 15 5.1 15 0 15 C0 10.05 0 5.1 0 0 Z " fill="#FFFFFF" transform="translate(0,0)"/>
<path d="M0 0 C0.33 0 0.66 0 1 0 C1.020625 0.763125 1.04125 1.52625 1.0625 2.3125 C1.79660949 5.41389118 1.79660949 5.41389118 5.5625 6.8125 C6.696875 7.204375 7.83125 7.59625 9 8 C8.01 8.33 7.02 8.66 6 9 C5.67 11.64 5.34 14.28 5 17 C0.05 17 -4.9 17 -10 17 C-10 12.05 -10 7.1 -10 2 C-6.7 2 -3.4 2 0 2 C0 1.34 0 0.68 0 0 Z " fill="#FDFDFD" transform="translate(10,148)"/>
<path d="M0 0 C4.95 0 9.9 0 15 0 C15 4.95 15 9.9 15 15 C10.71 15 6.42 15 2 15 C-0.28197042 9.29507396 -0.16112419 6.04215727 0 0 Z " fill="#EEEEEE" transform="translate(330,135)"/>
<path d="M0 0 C0.99 0 1.98 0 3 0 C3.02712066 1.43739513 3.04645067 2.87493863 3.0625 4.3125 C3.07410156 5.11300781 3.08570313 5.91351563 3.09765625 6.73828125 C3 9 3 9 2 12 C2 12.99 2 13.98 2 15 C1.979375 16.010625 1.95875 17.02125 1.9375 18.0625 C1.78892965 20.93459792 1.78892965 20.93459792 3 23 C2.01 23 1.02 23 0 23 C0.99 25.31 1.98 27.62 3 30 C1.02 30.99 1.02 30.99 -1 32 C0.98 32.99 2.96 33.98 5 35 C4.01 35.66 3.02 36.32 2 37 C2 38.32 2 39.64 2 41 C-0.64 41 -3.28 41 -6 41 C-6.4234968 31.98304735 -4.80140368 23.64827923 -3 14.875 C-2.71006248 13.4272583 -2.42099334 11.9793424 -2.1328125 10.53125 C-1.43186667 7.01877022 -0.71922815 3.50878771 0 0 Z " fill="#232323" transform="translate(18,113)"/>
<path d="M0 0 C0.66 0.33 1.32 0.66 2 1 C2.6328125 3.06640625 2.6328125 3.06640625 3.125 5.5625 C3.29257812 6.38878906 3.46015625 7.21507813 3.6328125 8.06640625 C3.75398438 8.70449219 3.87515625 9.34257813 4 10 C4.99 9.67 5.98 9.34 7 9 C7.33 9.99 7.66 10.98 8 12 C7.01 12.33 6.02 12.66 5 13 C5.54931729 17.90174437 7.14145924 21.7642567 9.4140625 26.078125 C9.7479599 26.73077332 10.0818573 27.38342163 10.4258728 28.05584717 C11.4845543 30.12463343 12.55345347 32.18785111 13.625 34.25 C15.04294009 36.97981877 16.45037467 39.71467734 17.8515625 42.453125 C18.34675888 43.39372772 18.34675888 43.39372772 18.85195923 44.35333252 C19.62886203 45.8725939 20.32286957 47.43372178 21 49 C20.67 49.66 20.34 50.32 20 51 C18.62437146 49.71034824 17.29233607 48.37310707 16 47 C16 46.34 16 45.68 16 45 C14.515 44.505 14.515 44.505 13 44 C13 43.34 13 42.68 13 42 C12.34 41.67 11.68 41.34 11 41 C9.60752862 38.35105233 8.31093841 35.71593113 7.0625 33 C6.702771 32.22124512 6.34304199 31.44249023 5.97241211 30.64013672 C1.68633459 21.25139901 -3.22144346 10.46969125 0 0 Z " fill="#0F0F0F" transform="translate(33,75)"/>
<path d="M0 0 C4.95 0 9.9 0 15 0 C15 4.95 15 9.9 15 15 C10.71372952 16.07156762 10.33924618 16.0365854 6.75 14.0625 C5.69039062 13.49208984 5.69039062 13.49208984 4.609375 12.91015625 C4.07828125 12.60980469 3.5471875 12.30945312 3 12 C3 11.34 3 10.68 3 10 C2.01 9.67 1.02 9.34 0 9 C0 6.03 0 3.06 0 0 Z " fill="#ECECEC" transform="translate(240,15)"/>
<path d="M0 0 C5.93768465 0.64540051 11.30192387 2.20471574 17 4 C16.67 7.3 16.34 10.6 16 14 C11.05 14 6.1 14 1 14 C0.67 9.38 0.34 4.76 0 0 Z " fill="#FCFCFC" transform="translate(44,166)"/>
<path d="M0 0 C3.96 0 7.92 0 12 0 C12.90375653 6.32629569 12.90375653 11.67370431 12 18 C11.34 17.01 10.68 16.02 10 15 C7.56306689 14.63583953 7.56306689 14.63583953 4.875 14.8125 C3.26625 14.874375 1.6575 14.93625 0 15 C0 10.05 0 5.1 0 0 Z " fill="#ECECEC" transform="translate(0,135)"/>
<path d="M0 0 C4.95 0 9.9 0 15 0 C15 3.3 15 6.6 15 10 C16.32 10.66 17.64 11.32 19 12 C16.20807795 12.05380578 13.4171859 12.09357669 10.625 12.125 C9.8309375 12.14175781 9.036875 12.15851562 8.21875 12.17578125 C6.14507985 12.19335473 4.07116759 12.10335168 2 12 C0 10 0 10 -0.1953125 7.6171875 C-0.13020833 5.078125 -0.06510417 2.5390625 0 0 Z " fill="#EDEDED" transform="translate(165,0)"/>
<path d="M0 0 C2 2 2 2 3.4375 5.4375 C5.12552615 9.28619962 6.29454906 11.14727453 10 13 C10.41064453 14.77148438 10.41064453 14.77148438 10.6328125 17.09375 C10.7167627 17.95202393 10.80071289 18.81029785 10.88720703 19.69458008 C11.00491455 21.08326294 11.00491455 21.08326294 11.125 22.5 C11.20991699 23.43803467 11.29483398 24.37606934 11.38232422 25.3425293 C12.10202213 33.90722406 12.2025829 42.41273609 12 51 C11.67 51 11.34 51 11 51 C10.77213542 49.01432292 10.54427083 47.02864583 10.31640625 45.04296875 C10.02829265 42.80603607 10.02829265 42.80603607 9 40 C8.50152317 37.52856024 8.04899171 35.05076117 7.59765625 32.5703125 C7.07561101 30.00835884 7.07561101 30.00835884 6.0625 27.734375 C4.59217003 23.95043758 3.79293483 20.08667155 2.9375 16.125 C2.76412109 15.34769531 2.59074219 14.57039063 2.41210938 13.76953125 C1.40851287 9.19374642 0.60086598 4.645871 0 0 Z M6 14 C6 14.66 6 15.32 6 16 C6.66 16 7.32 16 8 16 C8 15.34 8 14.68 8 14 C7.34 14 6.68 14 6 14 Z " fill="#131313" transform="translate(254,263)"/>
<path d="M0 0 C4.95 0 9.9 0 15 0 C15 3.3 15 6.6 15 10 C10.05 10 5.1 10 0 10 C0 6.7 0 3.4 0 0 Z " fill="#EEEEEE" transform="translate(330,375)"/>
<path d="M0 0 C4.95 0 9.9 0 15 0 C15 3.3 15 6.6 15 10 C10.05 10 5.1 10 0 10 C0 6.7 0 3.4 0 0 Z " fill="#FFFFFF" transform="translate(315,375)"/>
<path d="M0 0 C4.95 0 9.9 0 15 0 C15 3.3 15 6.6 15 10 C10.05 10 5.1 10 0 10 C0 6.7 0 3.4 0 0 Z " fill="#EEEEEE" transform="translate(300,375)"/>
<path d="M0 0 C4.95 0 9.9 0 15 0 C15 3.3 15 6.6 15 10 C10.05 10 5.1 10 0 10 C0 6.7 0 3.4 0 0 Z " fill="#FFFFFF" transform="translate(285,375)"/>
<path d="M0 0 C4.95 0 9.9 0 15 0 C15 3.3 15 6.6 15 10 C10.05 10 5.1 10 0 10 C0 6.7 0 3.4 0 0 Z " fill="#EEEEEE" transform="translate(60,375)"/>
<path d="M0 0 C4.95 0 9.9 0 15 0 C15 3.3 15 6.6 15 10 C10.05 10 5.1 10 0 10 C0 6.7 0 3.4 0 0 Z " fill="#FFFFFF" transform="translate(45,375)"/>
<path d="M0 0 C4.95 0 9.9 0 15 0 C15 3.3 15 6.6 15 10 C10.05 10 5.1 10 0 10 C0 6.7 0 3.4 0 0 Z " fill="#EEEEEE" transform="translate(30,375)"/>
<path d="M0 0 C4.95 0 9.9 0 15 0 C15 3.3 15 6.6 15 10 C10.05 10 5.1 10 0 10 C0 6.7 0 3.4 0 0 Z " fill="#FFFFFF" transform="translate(15,375)"/>
<path d="M0 0 C4.95 0 9.9 0 15 0 C15 3.3 15 6.6 15 10 C10.05 10 5.1 10 0 10 C0 6.7 0 3.4 0 0 Z " fill="#EEEEEE" transform="translate(0,375)"/>
<path d="M0 0 C0.33 0 0.66 0 1 0 C1 4.95 1 9.9 1 15 C3.31 15 5.62 15 8 15 C8 19.95 8 24.9 8 30 C5.69 30 3.38 30 1 30 C1 34.95 1 39.9 1 45 C0.67 45 0.34 45 0 45 C0 30.15 0 15.3 0 0 Z " fill="#FFFFFF" transform="translate(262,180)"/>
<path d="M0 0 C4.62 0 9.24 0 14 0 C14 3.3 14 6.6 14 10 C9.05 10 4.1 10 -1 10 C-1.125 2.25 -1.125 2.25 0 0 Z " fill="#EEEEEE" transform="translate(271,375)"/>
<path d="M0 0 C4.27081914 -0.02897435 8.54161309 -0.04678996 12.8125 -0.0625 C14.63491211 -0.07506836 14.63491211 -0.07506836 16.49414062 -0.08789062 C18.23920898 -0.09272461 18.23920898 -0.09272461 20.01953125 -0.09765625 C21.09307861 -0.10289307 22.16662598 -0.10812988 23.27270508 -0.11352539 C26 0 26 0 29 1 C29 3.64 29 6.28 29 9 C24.05 9 19.1 9 14 9 C14 6.69 14 4.38 14 2 C7.07 1.505 7.07 1.505 0 1 C0 0.67 0 0.34 0 0 Z " fill="#E8E8E8" transform="translate(196,376)"/>
<path d="M0 0 C9.9 0 19.8 0 30 0 C31 2 31 2 30 8 C25.05 8 20.1 8 15 8 C15 5.69 15 3.38 15 1 C10.05 1 5.1 1 0 1 C0 0.67 0 0.34 0 0 Z " fill="#FFFFFF" transform="translate(90,377)"/>
<path d="M0 0 C4.95 0 9.9 0 15 0 C15 3.3 15 6.6 15 10 C11.04 10 7.08 10 3 10 C2.67 9.01 2.34 8.02 2 7 C1.34 7 0.68 7 0 7 C0 4.69 0 2.38 0 0 Z " fill="#EDEDED" transform="translate(135,0)"/>
<path d="M0 0 C-0.33 3.3 -0.66 6.6 -1 10 C-5.95 10 -10.9 10 -16 10 C-16 8.02 -16 6.04 -16 4 C-3.93103448 -1.31034483 -3.93103448 -1.31034483 0 0 Z " fill="#FEFEFE" transform="translate(301,170)"/>
<path d="M0 0 C3.63 0.33 7.26 0.66 11 1 C11 5.95 11 10.9 11 16 C9.02 16 7.04 16 5 16 C4.15787744 14.08717875 3.32661136 12.16957527 2.5 10.25 C2.0359375 9.18265625 1.571875 8.1153125 1.09375 7.015625 C0 4 0 4 0 0 Z " fill="#FBFBFB" transform="translate(304,59)"/>
<path d="M0 0 C8.91 0 17.82 0 27 0 C27 0.33 27 0.66 27 1 C21.06 1.495 21.06 1.495 15 2 C15 3.98 15 5.96 15 8 C10.05 8 5.1 8 0 8 C0 5.36 0 2.72 0 0 Z " fill="#EEEEEE" transform="translate(120,377)"/>
<path d="M0 0 C0 6.6 0 13.2 0 20 C-0.33 18.68 -0.66 17.36 -1 16 C-3.31 16 -5.62 16 -8 16 C-8 11.05 -8 6.1 -8 1 C-1 0 -1 0 0 0 Z " fill="#FFFFFF" transform="translate(83,224)"/>
<path d="M0 0 C2.31 0 4.62 0 7 0 C8.03974499 3.41065139 8.11508506 6.52264842 8.09765625 10.078125 C8.09443359 11.23828125 8.09121094 12.3984375 8.08789062 13.59375 C8.07951172 14.8003125 8.07113281 16.006875 8.0625 17.25 C8.05798828 18.47203125 8.05347656 19.6940625 8.04882812 20.953125 C8.03704815 23.96879946 8.02059853 26.98437498 8 30 C7.67 30 7.34 30 7 30 C6.67 25.05 6.34 20.1 6 15 C4.02 15 2.04 15 0 15 C0 10.05 0 5.1 0 0 Z " fill="#E5E5E5" transform="translate(75,240)"/>
<path d="M0 0 C5.94 0 11.88 0 18 0 C17.01 0.33 16.02 0.66 15 1 C15 3.31 15 5.62 15 8 C10.05 8 5.1 8 0 8 C0 5.36 0 2.72 0 0 Z " fill="#FFFFFF" transform="translate(195,377)"/>
<path d="M0 0 C0.33 0 0.66 0 1 0 C1 10.56 1 21.12 1 32 C0.67 32 0.34 32 0 32 C0 28.7 0 25.4 0 22 C-1.98 22 -3.96 22 -6 22 C-6 17.05 -6 12.1 -6 7 C-4.02 7 -2.04 7 0 7 C0 4.69 0 2.38 0 0 Z " fill="#FFFFFF" transform="translate(81,248)"/>
<path d="M0 0 C4.95 0 9.9 0 15 0 C14.67 1.98 14.34 3.96 14 6 C11.85546875 7.4609375 11.85546875 7.4609375 9.1875 8.375 C8.31480469 8.69210938 7.44210938 9.00921875 6.54296875 9.3359375 C4 10 4 10 0 10 C0 6.7 0 3.4 0 0 Z " fill="#EDEDED" transform="translate(90,15)"/>
<path d="M0 0 C0.99 0.33 1.98 0.66 3 1 C3.12117187 1.76183594 3.24234375 2.52367187 3.3671875 3.30859375 C4.57666436 10.76083197 5.85326199 18.12975921 8 25.375 C10.79116502 35.49297319 11.50267229 45.56920571 12 56 C11.67 56 11.34 56 11 56 C10.79842285 55.00669678 10.5968457 54.01339355 10.38916016 52.98999023 C9.63526482 49.27880913 8.87773234 45.56837802 8.11914062 41.8581543 C7.79231271 40.25711737 7.4664505 38.65588299 7.14160156 37.05444336 C6.67250808 34.74279095 6.19986099 32.4318884 5.7265625 30.12109375 C5.58376862 29.41351425 5.44097473 28.70593475 5.29385376 27.97691345 C4.38975046 23.58423056 3.25717476 19.30819559 2 15 C1.58972996 12.92332447 1.21257089 10.83972454 0.875 8.75 C0.70742187 7.73421875 0.53984375 6.7184375 0.3671875 5.671875 C0 3 0 3 0 0 Z " fill="#191919" transform="translate(245,177)"/>
<path d="M0 0 C0.33 0 0.66 0 1 0 C1.33 20.13 1.66 40.26 2 61 C1.67 61 1.34 61 1 61 C0.67 57.37 0.34 53.74 0 50 C-0.33 50 -0.66 50 -1 50 C-1.50763865 47.31374546 -2.00627197 44.62631617 -2.5 41.9375 C-2.64308594 41.18533203 -2.78617187 40.43316406 -2.93359375 39.65820312 C-3.776431 35.02259825 -4.15015262 30.7110385 -4 26 C-2.02 26.99 -2.02 26.99 0 28 C0 18.76 0 9.52 0 0 Z " fill="#2E2E2E" transform="translate(261,207)"/>
<path d="M0 0 C1.2065625 0.0309375 1.2065625 0.0309375 2.4375 0.0625 C2.4375 0.3925 2.4375 0.7225 2.4375 1.0625 C5.4075 1.0625 8.3775 1.0625 11.4375 1.0625 C11.4375 3.7025 11.4375 6.3425 11.4375 9.0625 C6.4875 9.0625 1.5375 9.0625 -3.5625 9.0625 C-3.66015625 2.91015625 -3.66015625 2.91015625 -3.5625 1.0625 C-2.5625 0.0625 -2.5625 0.0625 0 0 Z " fill="#EEEEEE" transform="translate(63.5625,170.9375)"/>
<path d="M0 0 C5.05255964 0.63156995 9.29593201 2.13459373 14 4 C13.401875 4.144375 12.80375 4.28875 12.1875 4.4375 C10.43849596 4.8872439 8.71322977 5.42892341 7 6 C7 6.66 7 7.32 7 8 C8.83700789 8.77242269 8.83700789 8.77242269 11 9 C12.77190909 7.64555699 12.77190909 7.64555699 14 6 C15.9375 6.8125 15.9375 6.8125 18 8 C18.33 8.99 18.66 9.98 19 11 C19.66 11.66 20.32 12.32 21 13 C20.67 13.99 20.34 14.98 20 16 C13.07 13.69 6.14 11.38 -1 9 C-1 8.34 -1 7.68 -1 7 C-0.2575 7.0825 0.485 7.165 1.25 7.25 C4.78157027 6.92894816 5.76630364 5.64734383 8 3 C7.236875 2.87625 6.47375 2.7525 5.6875 2.625 C3 2 3 2 0 0 Z " fill="#202020" transform="translate(29,151)"/>
<path d="M0 0 C0.86625 0.2784375 0.86625 0.2784375 1.75 0.5625 C3.98697707 1.17934735 3.98697707 1.17934735 6.0625 0.375 C6.701875 0.25125 7.34125 0.1275 8 0 C9.75 1.4375 9.75 1.4375 11 3 C11.99 2.01 12.98 1.02 14 0 C15.20628008 2.33214148 16.1654738 4.49642139 17 7 C16.01 7 15.02 7 14 7 C13.505 7.495 13.01 7.99 12.5 8.5 C12.005 8.995 11.51 9.49 11 10 C10.01 10 9.02 10 8 10 C8 9.34 8 8.68 8 8 C3.38492226 6.95785309 3.38492226 6.95785309 -1 8 C-0.67 5.36 -0.34 2.72 0 0 Z M16 1 C16.99 1.495 16.99 1.495 18 2 C17.01 2.495 17.01 2.495 16 3 C16 2.34 16 1.68 16 1 Z " fill="#191919" transform="translate(99,365)"/>
<path d="M0 0 C0 2.64 0 5.28 0 8 C-4.95 8 -9.9 8 -15 8 C-15 6.02 -15 4.04 -15 2 C-15.66 1.67 -16.32 1.34 -17 1 C-14.72926348 0.83201949 -12.45840707 0.66565887 -10.1875 0.5 C-8.29064453 0.36078125 -8.29064453 0.36078125 -6.35546875 0.21875 C-4.24021483 0.08085219 -2.11974408 0 0 0 Z " fill="#FFFFFF" transform="translate(150,377)"/>
<path d="M0 0 C2.31 0 4.62 0 7 0 C7 4.95 7 9.9 7 15 C4.69 15.33 2.38 15.66 0 16 C0 10.72 0 5.44 0 0 Z " fill="#FEFEFE" transform="translate(263,255)"/>
<path d="M0 0 C4.95 0 9.9 0 15 0 C15 2.31 15 4.62 15 7 C10.05 7 5.1 7 0 7 C0 4.69 0 2.38 0 0 Z " fill="#EEEEEE" transform="translate(240,378)"/>
<path d="M0 0 C4.95 0 9.9 0 15 0 C15 2.31 15 4.62 15 7 C10.05 7 5.1 7 0 7 C0 4.69 0 2.38 0 0 Z " fill="#EEEEEE" transform="translate(180,378)"/>
<path d="M0 0 C4.95 0 9.9 0 15 0 C15 2.31 15 4.62 15 7 C10.05 7 5.1 7 0 7 C0 4.69 0 2.38 0 0 Z " fill="#EEEEEE" transform="translate(90,378)"/>
<path d="M0 0 C2.31 0 4.62 0 7 0 C7 4.95 7 9.9 7 15 C4.69 15 2.38 15 0 15 C0 10.05 0 5.1 0 0 Z " fill="#EEEEEE" transform="translate(263,210)"/>
<path d="M0 0 C2.31 0 4.62 0 7 0 C7 4.95 7 9.9 7 15 C4.69 15 2.38 15 0 15 C0 10.05 0 5.1 0 0 Z " fill="#EEEEEE" transform="translate(263,180)"/>
<path d="M0 0 C1.98 0 3.96 0 6 0 C6.74507544 6.37305598 7.10349817 12.58311325 7 19 C6.34 17.68 5.68 16.36 5 15 C3.35 15 1.7 15 0 15 C0 10.05 0 5.1 0 0 Z " fill="#EDEDED" transform="translate(75,270)"/>
<path d="M0 0 C4.95 0 9.9 0 15 0 C15 2.31 15 4.62 15 7 C14.40832031 6.90460937 13.81664062 6.80921875 13.20703125 6.7109375 C8.55619775 6.05845515 5.27685626 5.65462721 1 8 C0 6 0 6 0 0 Z " fill="#EDEDED" transform="translate(195,0)"/>
<path d="M0 0 C2.64 0 5.28 0 8 0 C8 4.95 8 9.9 8 15 C5 15 5 15 3.4375 14 C0.46955304 9.87068248 0 4.97337683 0 0 Z " fill="#ECECEC" transform="translate(322,120)"/>
<path d="M0 0 C1.98 0 3.96 0 6 0 C6 4.95 6 9.9 6 15 C4.02 15 2.04 15 0 15 C0 10.05 0 5.1 0 0 Z " fill="#EEEEEE" transform="translate(264,240)"/>
<path d="M0 0 C0.33 1.98 0.66 3.96 1 6 C0.01 6.495 0.01 6.495 -1 7 C-1 7.99 -1 8.98 -1 10 C-3.475 9.01 -3.475 9.01 -6 8 C-6.33 8.66 -6.66 9.32 -7 10 C-8.64295195 11.36244796 -10.30824337 12.69864875 -12 14 C-12 13.34 -12 12.68 -12 12 C-13.32 11.34 -14.64 10.68 -16 10 C-14.35 9.34 -12.7 8.68 -11 8 C-11.66 7.01 -12.32 6.02 -13 5 C-12.29875 4.731875 -11.5975 4.46375 -10.875 4.1875 C-7.91073437 3.00782057 -7.91073437 3.00782057 -4.8125 1.375 C-2 0 -2 0 0 0 Z " fill="#191919" transform="translate(55,55)"/>
<path d="M0 0 C0 4.95 0 9.9 0 15 C-1.98 15.33 -3.96 15.66 -6 16 C-6.33 11.05 -6.66 6.1 -7 1 C-5 0 -5 0 0 0 Z " fill="#E8E8E8" transform="translate(270,270)"/>
<path d="M0 0 C1.98 0 3.96 0 6 0 C6.33 0.33 6.66 0.66 7 1 C6.98831553 2.79356554 6.89079285 4.58693086 6.75 6.375 C6.68296875 7.35210937 6.6159375 8.32921875 6.546875 9.3359375 C5.94570484 12.264495 5.42960196 13.29927863 3 15 C2.01 15 1.02 15 0 15 C0 10.05 0 5.1 0 0 Z " fill="#EDEDED" transform="translate(15,90)"/>
<path d="M0 0 C0.33 0 0.66 0 1 0 C1 1.98 1 3.96 1 6 C2.32 6 3.64 6 5 6 C5 10.95 5 15.9 5 21 C3.68 21 2.36 21 1 21 C0.07811539 18.23434618 -0.11785222 16.61716298 -0.09765625 13.76953125 C-0.09282227 12.56586914 -0.09282227 12.56586914 -0.08789062 11.33789062 C-0.07951172 10.50451172 -0.07113281 9.67113281 -0.0625 8.8125 C-0.05798828 7.96751953 -0.05347656 7.12253906 -0.04882812 6.25195312 C-0.03705403 4.16793845 -0.0191189 2.08396023 0 0 Z " fill="#F9F9F9" transform="translate(265,279)"/>
<path d="M0 0 C2.31 0.33 4.62 0.66 7 1 C5.25 5.875 5.25 5.875 3 7 C3 7.99 3 8.98 3 10 C2.37943989 11.68437744 1.70710678 13.35008418 1 15 C0.62875 15.928125 0.2575 16.85625 -0.125 17.8125 C-0.558125 18.8953125 -0.558125 18.8953125 -1 20 C-1.99 20 -2.98 20 -4 20 C-4.33 19.34 -4.66 18.68 -5 18 C-4.33333333 16.33333333 -3.66666667 14.66666667 -3 13 C-3.33 12.34 -3.66 11.68 -4 11 C-2.02 11.495 -2.02 11.495 0 12 C-0.66 10.35 -1.32 8.7 -2 7 C-1.34 6.34 -0.68 5.68 0 5 C0.16687448 2.41645782 0.16687448 2.41645782 0 0 Z " fill="#0D0D0D" transform="translate(103,210)"/>
<path d="M0 0 C-0.33 1.98 -0.66 3.96 -1 6 C-5.95 6 -10.9 6 -16 6 C-16 5.01 -16 4.02 -16 3 C-3.003861 -1.5019305 -3.003861 -1.5019305 0 0 Z " fill="#EBEBEB" transform="translate(286,174)"/>
<path d="M0 0 C1.27617187 0.02320312 2.55234375 0.04640625 3.8671875 0.0703125 C5.78917969 0.09738281 5.78917969 0.09738281 7.75 0.125 C9.23113281 0.15980469 9.23113281 0.15980469 10.7421875 0.1953125 C10.7421875 2.1753125 10.7421875 4.1553125 10.7421875 6.1953125 C6.68306124 7.54835459 4.97069159 6.34747753 1.0546875 4.7578125 C-0.12480469 4.28472656 -1.30429687 3.81164063 -2.51953125 3.32421875 C-3.42316406 2.95167969 -4.32679688 2.57914063 -5.2578125 2.1953125 C-3.2578125 0.1953125 -3.2578125 0.1953125 0 0 Z " fill="#EDEDED" transform="translate(259.2578125,29.8046875)"/>
<path d="M0 0 C3.3 0 6.6 0 10 0 C10.66 3.96 11.32 7.92 12 12 C10.948125 11.0925 9.89625 10.185 8.8125 9.25 C6.6005694 7.34378338 4.38294391 5.52736129 2.0625 3.75 C1.381875 3.1725 0.70125 2.595 0 2 C0 1.34 0 0.68 0 0 Z " fill="#F7F7F7" transform="translate(290,45)"/>
<path d="M0 0 C0.763125 0.20625 1.52625 0.4125 2.3125 0.625 C2.6425 3.925 2.9725 7.225 3.3125 10.625 C0.3425 10.13 0.3425 10.13 -2.6875 9.625 C-3.6875 3.75 -3.6875 3.75 -3.6875 2.625 C-4.3475 2.295 -5.0075 1.965 -5.6875 1.625 C-2.6875 -0.375 -2.6875 -0.375 0 0 Z " fill="#222222" transform="translate(266.6875,365.375)"/>
<path d="M0 0 C0.99 0 1.98 0 3 0 C3 4.95 3 9.9 3 15 C2.01 15 1.02 15 0 15 C0 10.05 0 5.1 0 0 Z " fill="#FFFFFF" transform="translate(345,345)"/>
<path d="M0 0 C0.99 0 1.98 0 3 0 C3 4.95 3 9.9 3 15 C2.01 15 1.02 15 0 15 C0 10.05 0 5.1 0 0 Z " fill="#EEEEEE" transform="translate(345,330)"/>
<path d="M0 0 C0.99 0 1.98 0 3 0 C3 4.95 3 9.9 3 15 C2.01 15 1.02 15 0 15 C0 10.05 0 5.1 0 0 Z " fill="#FFFFFF" transform="translate(345,315)"/>
<path d="M0 0 C0.99 0 1.98 0 3 0 C3 4.95 3 9.9 3 15 C2.01 15 1.02 15 0 15 C0 10.05 0 5.1 0 0 Z " fill="#EEEEEE" transform="translate(345,300)"/>
<path d="M0 0 C0.99 0 1.98 0 3 0 C3 4.95 3 9.9 3 15 C2.01 15 1.02 15 0 15 C0 10.05 0 5.1 0 0 Z " fill="#FFFFFF" transform="translate(345,285)"/>
<path d="M0 0 C0.99 0 1.98 0 3 0 C3 4.95 3 9.9 3 15 C2.01 15 1.02 15 0 15 C0 10.05 0 5.1 0 0 Z " fill="#EEEEEE" transform="translate(345,270)"/>
<path d="M0 0 C0.99 0 1.98 0 3 0 C3 4.95 3 9.9 3 15 C2.01 15 1.02 15 0 15 C0 10.05 0 5.1 0 0 Z " fill="#FFFFFF" transform="translate(345,255)"/>
<path d="M0 0 C0.99 0 1.98 0 3 0 C3 4.95 3 9.9 3 15 C2.01 15 1.02 15 0 15 C0 10.05 0 5.1 0 0 Z " fill="#EEEEEE" transform="translate(345,240)"/>
<path d="M0 0 C0.99 0 1.98 0 3 0 C3 4.95 3 9.9 3 15 C2.01 15 1.02 15 0 15 C0 10.05 0 5.1 0 0 Z " fill="#FFFFFF" transform="translate(345,225)"/>
<path d="M0 0 C0.99 0 1.98 0 3 0 C3 4.95 3 9.9 3 15 C2.01 15 1.02 15 0 15 C0 10.05 0 5.1 0 0 Z " fill="#EEEEEE" transform="translate(345,210)"/>
<path d="M0 0 C0.99 0 1.98 0 3 0 C3 4.95 3 9.9 3 15 C2.01 15 1.02 15 0 15 C0 10.05 0 5.1 0 0 Z " fill="#FFFFFF" transform="translate(345,195)"/>
<path d="M0 0 C0.99 0 1.98 0 3 0 C3 4.95 3 9.9 3 15 C2.01 15 1.02 15 0 15 C0 10.05 0 5.1 0 0 Z " fill="#EEEEEE" transform="translate(345,180)"/>
<path d="M0 0 C0.99 0 1.98 0 3 0 C3 4.95 3 9.9 3 15 C2.01 15 1.02 15 0 15 C0 10.05 0 5.1 0 0 Z " fill="#FFFFFF" transform="translate(345,165)"/>
<path d="M0 0 C0.99 0 1.98 0 3 0 C3 4.95 3 9.9 3 15 C2.01 15 1.02 15 0 15 C0 10.05 0 5.1 0 0 Z " fill="#EEEEEE" transform="translate(345,150)"/>
<path d="M0 0 C0.99 0 1.98 0 3 0 C3 4.95 3 9.9 3 15 C2.01 15 1.02 15 0 15 C0 10.05 0 5.1 0 0 Z " fill="#FFFFFF" transform="translate(345,135)"/>
<path d="M0 0 C0.99 0 1.98 0 3 0 C3 4.95 3 9.9 3 15 C2.01 15 1.02 15 0 15 C0 10.05 0 5.1 0 0 Z " fill="#EEEEEE" transform="translate(345,120)"/>
<path d="M0 0 C0.99 0 1.98 0 3 0 C3 4.95 3 9.9 3 15 C2.01 15 1.02 15 0 15 C0 10.05 0 5.1 0 0 Z " fill="#FFFFFF" transform="translate(345,105)"/>
<path d="M0 0 C0.99 0 1.98 0 3 0 C3 4.95 3 9.9 3 15 C2.01 15 1.02 15 0 15 C0 10.05 0 5.1 0 0 Z " fill="#EEEEEE" transform="translate(345,90)"/>
<path d="M0 0 C0.99 0 1.98 0 3 0 C3 4.95 3 9.9 3 15 C2.01 15 1.02 15 0 15 C0 10.05 0 5.1 0 0 Z " fill="#FFFFFF" transform="translate(345,75)"/>
<path d="M0 0 C0.99 0 1.98 0 3 0 C3 4.95 3 9.9 3 15 C2.01 15 1.02 15 0 15 C0 10.05 0 5.1 0 0 Z " fill="#EEEEEE" transform="translate(345,60)"/>
<path d="M0 0 C0.99 0 1.98 0 3 0 C3 4.95 3 9.9 3 15 C2.01 15 1.02 15 0 15 C0 10.05 0 5.1 0 0 Z " fill="#EEEEEE" transform="translate(345,30)"/>
<path d="M0 0 C0.99 0 1.98 0 3 0 C3 4.95 3 9.9 3 15 C2.01 15 1.02 15 0 15 C0 10.05 0 5.1 0 0 Z " fill="#EEEEEE" transform="translate(345,0)"/>
<path d="M0 0 C6.6772895 0.60702632 12.70127996 2.77631394 19 5 C19 5.66 19 6.32 19 7 C15.7 7 12.4 7 9 7 C9 5.68 9 4.36 9 3 C4.545 2.01 4.545 2.01 0 1 C0 0.67 0 0.34 0 0 Z " fill="#F9F9F9" transform="translate(21,158)"/>
<path d="M0 0 C2.40276009 3.60414013 2.90940836 7.00713045 3.625 11.1875 C3.7590625 11.93708984 3.893125 12.68667969 4.03125 13.45898438 C4.36045419 15.30487928 4.68106498 17.15230309 5 19 C4.34 19 3.68 19 3 19 C2.70996094 18.11248047 2.70996094 18.11248047 2.4140625 17.20703125 C1.29262413 13.80385442 0.18100562 10.43822413 -1.1875 7.125 C-2 5 -2 5 -2 2 C-1.34 2 -0.68 2 0 2 C0 1.34 0 0.68 0 0 Z " fill="#292929" transform="translate(308,74)"/>
<path d="M0 0 C2.31 0.66 4.62 1.32 7 2 C6.34 2.66 5.68 3.32 5 4 C4.34 3.67 3.68 3.34 3 3 C2.67 3.66 2.34 4.32 2 5 C-0.0625 5.625 -0.0625 5.625 -2 6 C-2 6.66 -2 7.32 -2 8 C-2.99 8 -3.98 8 -5 8 C-5 7.34 -5 6.68 -5 6 C-5.99 5.67 -6.98 5.34 -8 5 C-6 4 -4 3 -2 2 C-1.67 2.33 -1.34 2.66 -1 3 C-0.67 2.01 -0.34 1.02 0 0 Z " fill="#1C1C1C" transform="translate(115,130)"/>
<path d="M0 0 C0.66 0 1.32 0 2 0 C2.97159933 7.68604474 3.10920422 15.25863399 3 23 C2.67 23 2.34 23 2 23 C1.67 20.36 1.34 17.72 1 15 C0.67 15 0.34 15 0 15 C0 10.05 0 5.1 0 0 Z " fill="#E6E6E6" transform="translate(75,330)"/>
<path d="M0 0 C0 0.99 0 1.98 0 3 C-4.49656104 5.24828052 -8.07872966 5.16682272 -13 5 C-11.5977422 2.1954844 -9.93929378 1.9557882 -7.0625 0.8125 C-6.16660156 0.44769531 -5.27070313 0.08289062 -4.34765625 -0.29296875 C-2 -1 -2 -1 0 0 Z " fill="#161616" transform="translate(196,35)"/>
<path d="M0 0 C5.01638186 3.7622864 4.84685385 5.13817373 6 11 C5.34 11 4.68 11 4 11 C4.33 11.99 4.66 12.98 5 14 C4.34 14 3.68 14 3 14 C2.67 13.01 2.34 12.02 2 11 C1.01 11.495 1.01 11.495 0 12 C0 8.04 0 4.08 0 0 Z " fill="#202020" transform="translate(32,126)"/>
<path d="M0 0 C0.99 0.33 1.98 0.66 3 1 C2.01 2.485 2.01 2.485 1 4 C1.165 4.66 1.33 5.32 1.5 6 C1.665 6.66 1.83 7.32 2 8 C1.01 9.485 1.01 9.485 0 11 C0 10.01 0 9.02 0 8 C-0.66 8 -1.32 8 -2 8 C-2.33 7.01 -2.66 6.02 -3 5 C-1.5625 2.3125 -1.5625 2.3125 0 0 Z M-4 8 C-3.01 8.33 -2.02 8.66 -1 9 C-1.66 9.66 -2.32 10.32 -3 11 C-3.33 10.01 -3.66 9.02 -4 8 Z " fill="#1B1B1B" transform="translate(128,133)"/>
<path d="M0 0 C3.2688811 3.03538959 5.59915748 6.24868357 8 10 C8.7476349 11.12657314 9.49755613 12.25163309 10.25 13.375 C11.11625 14.674375 11.11625 14.674375 12 16 C10.68 15.34 9.36 14.68 8 14 C8 13.34 8 12.68 8 12 C7.01 11.67 6.02 11.34 5 11 C3 8 3 8 3 5 C2.34 5 1.68 5 1 5 C0.67 3.35 0.34 1.7 0 0 Z " fill="#0D0D0D" transform="translate(48,97)"/>
<path d="M0 0 C4.59801699 1.98550734 7.08594242 3.94113408 10 8 C10.66 8.66 11.32 9.32 12 10 C11.34 10.66 10.68 11.32 10 12 C9.46375 11.278125 8.9275 10.55625 8.375 9.8125 C6.52526856 7.62202856 4.95216984 6.06588641 2.75 4.3125 C1.8425 3.549375 0.935 2.78625 0 2 C0 1.34 0 0.68 0 0 Z " fill="#1F1F1F" transform="translate(48,81)"/>
<path d="M0 0 C0.99 0 1.98 0 3 0 C3 3.3 3 6.6 3 10 C2.01 10 1.02 10 0 10 C0 6.7 0 3.4 0 0 Z " fill="#FFFFFF" transform="translate(345,375)"/>
<path d="M0 0 C0.66 0.66 1.32 1.32 2 2 C-1 9.57142857 -1 9.57142857 -4 12 C-4.125 9.125 -4.125 9.125 -4 6 C-3.34 5.34 -2.68 4.68 -2 4 C-1.30251417 2.68252676 -0.63040043 1.35085807 0 0 Z " fill="#191919" transform="translate(126,174)"/>
<path d="M0 0 C0 1.98 0 3.96 0 6 C-3 6 -3 6 -6 5 C-5.6875 3.0625 -5.6875 3.0625 -5 1 C-2 0 -2 0 0 0 Z " fill="#1C1C1C" transform="translate(43,86)"/>
<path d="M0 0 C3.465 1.98 3.465 1.98 7 4 C6.01 4.495 6.01 4.495 5 5 C4.67 5.66 4.34 6.32 4 7 C4 6.34 4 5.68 4 5 C3.01 5 2.02 5 1 5 C1 5.99 1 6.98 1 8 C-1 7 -1 7 -2 4 C-1.34 3.34 -0.68 2.68 0 2 C0 1.34 0 0.68 0 0 Z " fill="#0D0D0D" transform="translate(156,101)"/>
<path d="M0 0 C0.66 0.33 1.32 0.66 2 1 C1.1875 3.9375 1.1875 3.9375 0 7 C-0.99 7.33 -1.98 7.66 -3 8 C-3.12375 7.360625 -3.2475 6.72125 -3.375 6.0625 C-3.684375 5.0415625 -3.684375 5.0415625 -4 4 C-4.66 3.67 -5.32 3.34 -6 3 C-4.03533587 1.93224776 -2.03144641 0.93446535 0 0 Z " fill="#262626" transform="translate(111,17)"/>
<path d="M0 0 C0.66 0.33 1.32 0.66 2 1 C2.59355614 3.64860427 2.74209269 6.29197322 3 9 C1.68 8.34 0.36 7.68 -1 7 C-1 3 -1 3 0 0 Z " fill="#1C1C1C" transform="translate(305,67)"/>
<path d="M0 0 C1.65 0 3.3 0 5 0 C5.66 1.32 6.32 2.64 7 4 C6.34 4 5.68 4 5 4 C5 3.34 5 2.68 5 2 C4.34 2 3.68 2 3 2 C3 3.32 3 4.64 3 6 C1.68 5.34 0.36 4.68 -1 4 C-0.67 2.68 -0.34 1.36 0 0 Z " fill="#0D0D0D" transform="translate(234,40)"/>
<path d="M0 0 C0.33 0 0.66 0 1 0 C1.33 4.62 1.66 9.24 2 14 C-1.12276791 9.83630946 -1.72410406 8.05809218 -2 3 C-1.34 2.01 -0.68 1.02 0 0 Z " fill="#1A1A1A" transform="translate(263,276)"/>
<path d="M0 0 C0.33 0.66 0.66 1.32 1 2 C4.02934491 2.65772428 4.02934491 2.65772428 7 3 C6.67 4.32 6.34 5.64 6 7 C4.02 6.34 2.04 5.68 0 5 C0 3.35 0 1.7 0 0 Z " fill="#232323" transform="translate(43,160)"/>
<path d="M0 0 C0.66 0.33 1.32 0.66 2 1 C1.67 1.99 1.34 2.98 1 4 C0.01 3.67 -0.98 3.34 -2 3 C-2 2.34 -2 1.68 -2 1 C-1.34 0.67 -0.68 0.34 0 0 Z M-4 2 C-3.34 2.33 -2.68 2.66 -2 3 C-2.66 4.32 -3.32 5.64 -4 7 C-4.66 6.67 -5.32 6.34 -6 6 C-5.34 4.68 -4.68 3.36 -4 2 Z " fill="#1A1A1A" transform="translate(229,30)"/>
<path d="M0 0 C1.32 0.33 2.64 0.66 4 1 C4.33 2.32 4.66 3.64 5 5 C3.02 5.99 3.02 5.99 1 7 C0.67 4.69 0.34 2.38 0 0 Z " fill="#131313" transform="translate(265,109)"/>
<path d="M0 0 C3.91211733 1.15585285 6.8745041 2.35534962 10 5 C7 6 7 6 5 5.0625 C4.34 4.711875 3.68 4.36125 3 4 C2.01 4 1.02 4 0 4 C0 2.68 0 1.36 0 0 Z " fill="#242424" transform="translate(224,18)"/>
<path d="M0 0 C0.33 0 0.66 0 1 0 C1.33 2.64 1.66 5.28 2 8 C0.68 8.33 -0.64 8.66 -2 9 C-1.125 2.25 -1.125 2.25 0 0 Z " fill="#EAEAEA" transform="translate(79,156)"/>
<path d="M0 0 C0.33 0 0.66 0 1 0 C2.75747614 4.50353262 3.19294408 8.17639811 3 13 C-0.09902323 9.90097677 0.0101421 7.60852615 -0.0625 3.25 C-0.041875 2.1775 -0.02125 1.105 0 0 Z " fill="#F9F9F9" transform="translate(312,84)"/>
<path d="M0 0 C0.66 0.66 1.32 1.32 2 2 C1.34 3.65 0.68 5.3 0 7 C-0.99 6.67 -1.98 6.34 -3 6 C-3 3 -3 3 -1.5 1.3125 C-0.7575 0.6628125 -0.7575 0.6628125 0 0 Z " fill="#1A1A1A" transform="translate(100,287)"/>
<path d="M0 0 C0.99 0 1.98 0 3 0 C2.34 1.98 1.68 3.96 1 6 C0.01 6 -0.98 6 -2 6 C-1.34 4.02 -0.68 2.04 0 0 Z " fill="#0D0D0D" transform="translate(96,236)"/>
<path d="M0 0 C0.66 0.99 1.32 1.98 2 3 C0.33333333 4.66666667 -1.33333333 6.33333333 -3 8 C-3.33 6.35 -3.66 4.7 -4 3 C-3.01 2.67 -2.02 2.34 -1 2 C-0.67 1.34 -0.34 0.68 0 0 Z " fill="#1D1D1D" transform="translate(106,135)"/>
<path d="M0 0 C0.99 0.33 1.98 0.66 3 1 C3 3.64 3 6.28 3 9 C2.34 8.67 1.68 8.34 1 8 C0 2.4 0 2.4 0 0 Z " fill="#0D0D0D" transform="translate(242,162)"/>
<path d="M0 0 C0.99 0 1.98 0 3 0 C3.1875 2.375 3.1875 2.375 3 5 C2.01 5.66 1.02 6.32 0 7 C0 4.69 0 2.38 0 0 Z " fill="#1E1E1E" transform="translate(18,113)"/>
<path d="M0 0 C2.5654594 2.5654594 2.54046087 4.47686668 3 8 C2.01 8.33 1.02 8.66 0 9 C0 6.03 0 3.06 0 0 Z " fill="#191919" transform="translate(312,93)"/>
<path d="M0 0 C2.35171131 0.59861742 4.6859378 1.26924352 7 2 C7.33 2.66 7.66 3.32 8 4 C4.26512223 3.5020163 2.18762365 3.12508244 -1 1 C-0.67 0.67 -0.34 0.34 0 0 Z " fill="#2F2F2F" transform="translate(238,25)"/>
</svg>
